<?xml version="1.0" encoding="utf-8" standalone="no"?>
<!DOCTYPE svg PUBLIC "-//W3C//DTD SVG 1.1//EN"
  "http://www.w3.org/Graphics/SVG/1.1/DTD/svg11.dtd">
<svg xmlns:xlink="http://www.w3.org/1999/xlink" width="895.32pt" height="329.04pt" viewBox="0 0 895.32 329.04" xmlns="http://www.w3.org/2000/svg" version="1.1">
 <metadata>
  <rdf:RDF xmlns:dc="http://purl.org/dc/elements/1.1/" xmlns:cc="http://creativecommons.org/ns#" xmlns:rdf="http://www.w3.org/1999/02/22-rdf-syntax-ns#">
   <cc:Work>
    <dc:type rdf:resource="http://purl.org/dc/dcmitype/StillImage"/>
    <dc:date>2024-05-11T13:14:57.484634</dc:date>
    <dc:format>image/svg+xml</dc:format>
    <dc:creator>
     <cc:Agent>
      <dc:title>Matplotlib v3.8.4, https://matplotlib.org/</dc:title>
     </cc:Agent>
    </dc:creator>
   </cc:Work>
  </rdf:RDF>
 </metadata>
 <defs>
  <style type="text/css">*{stroke-linejoin: round; stroke-linecap: butt}</style>
 </defs>
 <g id="figure_1">
  <g id="patch_1">
   <path d="M 0 329.04 
L 895.32 329.04 
L 895.32 0 
L 0 0 
z
" style="fill: #ffffff"/>
  </g>
  <g id="axes_1">
   <g id="patch_2">
    <path d="M 111.915 292.8456 
L 427.311818 292.8456 
L 427.311818 39.4848 
L 111.915 39.4848 
z
" style="fill: #ffffff"/>
   </g>
   <g id="matplotlib.axis_1">
    <g id="xtick_1">
     <g id="line2d_1">
      <defs>
       <path id="me6f84981f5" d="M 0 0 
L 0 3.5 
" style="stroke: #000000; stroke-width: 0.8"/>
      </defs>
      <g>
       <use xlink:href="#me6f84981f5" x="126.251219" y="292.8456" style="stroke: #000000; stroke-width: 0.8"/>
      </g>
     </g>
     <g id="text_1">
      <!-- −200 -->
      <g transform="translate(112.517625 307.444038) scale(0.1 -0.1)">
       <defs>
        <path id="DejaVuSans-2212" d="M 678 2272 
L 4684 2272 
L 4684 1741 
L 678 1741 
L 678 2272 
z
" transform="scale(0.015625)"/>
        <path id="DejaVuSans-32" d="M 1228 531 
L 3431 531 
L 3431 0 
L 469 0 
L 469 531 
Q 828 903 1448 1529 
Q 2069 2156 2228 2338 
Q 2531 2678 2651 2914 
Q 2772 3150 2772 3378 
Q 2772 3750 2511 3984 
Q 2250 4219 1831 4219 
Q 1534 4219 1204 4116 
Q 875 4013 500 3803 
L 500 4441 
Q 881 4594 1212 4672 
Q 1544 4750 1819 4750 
Q 2544 4750 2975 4387 
Q 3406 4025 3406 3419 
Q 3406 3131 3298 2873 
Q 3191 2616 2906 2266 
Q 2828 2175 2409 1742 
Q 1991 1309 1228 531 
z
" transform="scale(0.015625)"/>
        <path id="DejaVuSans-30" d="M 2034 4250 
Q 1547 4250 1301 3770 
Q 1056 3291 1056 2328 
Q 1056 1369 1301 889 
Q 1547 409 2034 409 
Q 2525 409 2770 889 
Q 3016 1369 3016 2328 
Q 3016 3291 2770 3770 
Q 2525 4250 2034 4250 
z
M 2034 4750 
Q 2819 4750 3233 4129 
Q 3647 3509 3647 2328 
Q 3647 1150 3233 529 
Q 2819 -91 2034 -91 
Q 1250 -91 836 529 
Q 422 1150 422 2328 
Q 422 3509 836 4129 
Q 1250 4750 2034 4750 
z
" transform="scale(0.015625)"/>
       </defs>
       <use xlink:href="#DejaVuSans-2212"/>
       <use xlink:href="#DejaVuSans-32" x="83.789062"/>
       <use xlink:href="#DejaVuSans-30" x="147.412109"/>
       <use xlink:href="#DejaVuSans-30" x="211.035156"/>
      </g>
     </g>
    </g>
    <g id="xtick_2">
     <g id="line2d_2">
      <g>
       <use xlink:href="#me6f84981f5" x="162.091767" y="292.8456" style="stroke: #000000; stroke-width: 0.8"/>
      </g>
     </g>
     <g id="text_2">
      <!-- −150 -->
      <g transform="translate(148.358173 307.444038) scale(0.1 -0.1)">
       <defs>
        <path id="DejaVuSans-31" d="M 794 531 
L 1825 531 
L 1825 4091 
L 703 3866 
L 703 4441 
L 1819 4666 
L 2450 4666 
L 2450 531 
L 3481 531 
L 3481 0 
L 794 0 
L 794 531 
z
" transform="scale(0.015625)"/>
        <path id="DejaVuSans-35" d="M 691 4666 
L 3169 4666 
L 3169 4134 
L 1269 4134 
L 1269 2991 
Q 1406 3038 1543 3061 
Q 1681 3084 1819 3084 
Q 2600 3084 3056 2656 
Q 3513 2228 3513 1497 
Q 3513 744 3044 326 
Q 2575 -91 1722 -91 
Q 1428 -91 1123 -41 
Q 819 9 494 109 
L 494 744 
Q 775 591 1075 516 
Q 1375 441 1709 441 
Q 2250 441 2565 725 
Q 2881 1009 2881 1497 
Q 2881 1984 2565 2268 
Q 2250 2553 1709 2553 
Q 1456 2553 1204 2497 
Q 953 2441 691 2322 
L 691 4666 
z
" transform="scale(0.015625)"/>
       </defs>
       <use xlink:href="#DejaVuSans-2212"/>
       <use xlink:href="#DejaVuSans-31" x="83.789062"/>
       <use xlink:href="#DejaVuSans-35" x="147.412109"/>
       <use xlink:href="#DejaVuSans-30" x="211.035156"/>
      </g>
     </g>
    </g>
    <g id="xtick_3">
     <g id="line2d_3">
      <g>
       <use xlink:href="#me6f84981f5" x="197.932314" y="292.8456" style="stroke: #000000; stroke-width: 0.8"/>
      </g>
     </g>
     <g id="text_3">
      <!-- −100 -->
      <g transform="translate(184.19872 307.444038) scale(0.1 -0.1)">
       <use xlink:href="#DejaVuSans-2212"/>
       <use xlink:href="#DejaVuSans-31" x="83.789062"/>
       <use xlink:href="#DejaVuSans-30" x="147.412109"/>
       <use xlink:href="#DejaVuSans-30" x="211.035156"/>
      </g>
     </g>
    </g>
    <g id="xtick_4">
     <g id="line2d_4">
      <g>
       <use xlink:href="#me6f84981f5" x="233.772862" y="292.8456" style="stroke: #000000; stroke-width: 0.8"/>
      </g>
     </g>
     <g id="text_4">
      <!-- −50 -->
      <g transform="translate(223.220518 307.444038) scale(0.1 -0.1)">
       <use xlink:href="#DejaVuSans-2212"/>
       <use xlink:href="#DejaVuSans-35" x="83.789062"/>
       <use xlink:href="#DejaVuSans-30" x="147.412109"/>
      </g>
     </g>
    </g>
    <g id="xtick_5">
     <g id="line2d_5">
      <g>
       <use xlink:href="#me6f84981f5" x="269.613409" y="292.8456" style="stroke: #000000; stroke-width: 0.8"/>
      </g>
     </g>
     <g id="text_5">
      <!-- 0 -->
      <g transform="translate(266.432159 307.444038) scale(0.1 -0.1)">
       <use xlink:href="#DejaVuSans-30"/>
      </g>
     </g>
    </g>
    <g id="xtick_6">
     <g id="line2d_6">
      <g>
       <use xlink:href="#me6f84981f5" x="305.453957" y="292.8456" style="stroke: #000000; stroke-width: 0.8"/>
      </g>
     </g>
     <g id="text_6">
      <!-- 50 -->
      <g transform="translate(299.091457 307.444038) scale(0.1 -0.1)">
       <use xlink:href="#DejaVuSans-35"/>
       <use xlink:href="#DejaVuSans-30" x="63.623047"/>
      </g>
     </g>
    </g>
    <g id="xtick_7">
     <g id="line2d_7">
      <g>
       <use xlink:href="#me6f84981f5" x="341.294504" y="292.8456" style="stroke: #000000; stroke-width: 0.8"/>
      </g>
     </g>
     <g id="text_7">
      <!-- 100 -->
      <g transform="translate(331.750754 307.444038) scale(0.1 -0.1)">
       <use xlink:href="#DejaVuSans-31"/>
       <use xlink:href="#DejaVuSans-30" x="63.623047"/>
       <use xlink:href="#DejaVuSans-30" x="127.246094"/>
      </g>
     </g>
    </g>
    <g id="xtick_8">
     <g id="line2d_8">
      <g>
       <use xlink:href="#me6f84981f5" x="377.135052" y="292.8456" style="stroke: #000000; stroke-width: 0.8"/>
      </g>
     </g>
     <g id="text_8">
      <!-- 150 -->
      <g transform="translate(367.591302 307.444038) scale(0.1 -0.1)">
       <use xlink:href="#DejaVuSans-31"/>
       <use xlink:href="#DejaVuSans-35" x="63.623047"/>
       <use xlink:href="#DejaVuSans-30" x="127.246094"/>
      </g>
     </g>
    </g>
    <g id="xtick_9">
     <g id="line2d_9">
      <g>
       <use xlink:href="#me6f84981f5" x="412.975599" y="292.8456" style="stroke: #000000; stroke-width: 0.8"/>
      </g>
     </g>
     <g id="text_9">
      <!-- 200 -->
      <g transform="translate(403.431849 307.444038) scale(0.1 -0.1)">
       <use xlink:href="#DejaVuSans-32"/>
       <use xlink:href="#DejaVuSans-30" x="63.623047"/>
       <use xlink:href="#DejaVuSans-30" x="127.246094"/>
      </g>
     </g>
    </g>
    <g id="text_10">
     <!-- $X(m)$ -->
     <g transform="translate(257.413409 321.122163) scale(0.1 -0.1)">
      <defs>
       <path id="DejaVuSans-Oblique-58" d="M 878 4666 
L 1516 4666 
L 2316 2981 
L 3763 4666 
L 4500 4666 
L 2578 2438 
L 3738 0 
L 3103 0 
L 2163 1966 
L 459 0 
L -275 0 
L 1906 2509 
L 878 4666 
z
" transform="scale(0.015625)"/>
       <path id="DejaVuSans-28" d="M 1984 4856 
Q 1566 4138 1362 3434 
Q 1159 2731 1159 2009 
Q 1159 1288 1364 580 
Q 1569 -128 1984 -844 
L 1484 -844 
Q 1016 -109 783 600 
Q 550 1309 550 2009 
Q 550 2706 781 3412 
Q 1013 4119 1484 4856 
L 1984 4856 
z
" transform="scale(0.015625)"/>
       <path id="DejaVuSans-Oblique-6d" d="M 5747 2113 
L 5338 0 
L 4763 0 
L 5166 2094 
Q 5191 2228 5203 2325 
Q 5216 2422 5216 2491 
Q 5216 2772 5059 2928 
Q 4903 3084 4622 3084 
Q 4203 3084 3875 2770 
Q 3547 2456 3450 1953 
L 3066 0 
L 2491 0 
L 2900 2094 
Q 2925 2209 2937 2307 
Q 2950 2406 2950 2484 
Q 2950 2769 2794 2926 
Q 2638 3084 2363 3084 
Q 1938 3084 1609 2770 
Q 1281 2456 1184 1953 
L 800 0 
L 225 0 
L 909 3500 
L 1484 3500 
L 1375 2956 
Q 1609 3263 1923 3423 
Q 2238 3584 2597 3584 
Q 2978 3584 3223 3384 
Q 3469 3184 3519 2828 
Q 3781 3197 4126 3390 
Q 4472 3584 4856 3584 
Q 5306 3584 5551 3325 
Q 5797 3066 5797 2591 
Q 5797 2488 5784 2364 
Q 5772 2241 5747 2113 
z
" transform="scale(0.015625)"/>
       <path id="DejaVuSans-29" d="M 513 4856 
L 1013 4856 
Q 1481 4119 1714 3412 
Q 1947 2706 1947 2009 
Q 1947 1309 1714 600 
Q 1481 -109 1013 -844 
L 513 -844 
Q 928 -128 1133 580 
Q 1338 1288 1338 2009 
Q 1338 2731 1133 3434 
Q 928 4138 513 4856 
z
" transform="scale(0.015625)"/>
      </defs>
      <use xlink:href="#DejaVuSans-Oblique-58" transform="translate(0 0.125)"/>
      <use xlink:href="#DejaVuSans-28" transform="translate(68.505859 0.125)"/>
      <use xlink:href="#DejaVuSans-Oblique-6d" transform="translate(107.519531 0.125)"/>
      <use xlink:href="#DejaVuSans-29" transform="translate(204.931641 0.125)"/>
     </g>
    </g>
   </g>
   <g id="matplotlib.axis_2">
    <g id="ytick_1">
     <g id="line2d_10">
      <defs>
       <path id="mf62405181a" d="M 0 0 
L -3.5 0 
" style="stroke: #000000; stroke-width: 0.8"/>
      </defs>
      <g>
       <use xlink:href="#mf62405181a" x="111.915" y="288.708378" style="stroke: #000000; stroke-width: 0.8"/>
      </g>
     </g>
     <g id="text_11">
      <!-- 150 -->
      <g transform="translate(85.8275 292.507596) scale(0.1 -0.1)">
       <use xlink:href="#DejaVuSans-31"/>
       <use xlink:href="#DejaVuSans-35" x="63.623047"/>
       <use xlink:href="#DejaVuSans-30" x="127.246094"/>
      </g>
     </g>
    </g>
    <g id="ytick_2">
     <g id="line2d_11">
      <g>
       <use xlink:href="#mf62405181a" x="111.915" y="258.881696" style="stroke: #000000; stroke-width: 0.8"/>
      </g>
     </g>
     <g id="text_12">
      <!-- 175 -->
      <g transform="translate(85.8275 262.680915) scale(0.1 -0.1)">
       <defs>
        <path id="DejaVuSans-37" d="M 525 4666 
L 3525 4666 
L 3525 4397 
L 1831 0 
L 1172 0 
L 2766 4134 
L 525 4134 
L 525 4666 
z
" transform="scale(0.015625)"/>
       </defs>
       <use xlink:href="#DejaVuSans-31"/>
       <use xlink:href="#DejaVuSans-37" x="63.623047"/>
       <use xlink:href="#DejaVuSans-35" x="127.246094"/>
      </g>
     </g>
    </g>
    <g id="ytick_3">
     <g id="line2d_12">
      <g>
       <use xlink:href="#mf62405181a" x="111.915" y="229.055015" style="stroke: #000000; stroke-width: 0.8"/>
      </g>
     </g>
     <g id="text_13">
      <!-- 200 -->
      <g transform="translate(85.8275 232.854234) scale(0.1 -0.1)">
       <use xlink:href="#DejaVuSans-32"/>
       <use xlink:href="#DejaVuSans-30" x="63.623047"/>
       <use xlink:href="#DejaVuSans-30" x="127.246094"/>
      </g>
     </g>
    </g>
    <g id="ytick_4">
     <g id="line2d_13">
      <g>
       <use xlink:href="#mf62405181a" x="111.915" y="199.228333" style="stroke: #000000; stroke-width: 0.8"/>
      </g>
     </g>
     <g id="text_14">
      <!-- 225 -->
      <g transform="translate(85.8275 203.027552) scale(0.1 -0.1)">
       <use xlink:href="#DejaVuSans-32"/>
       <use xlink:href="#DejaVuSans-32" x="63.623047"/>
       <use xlink:href="#DejaVuSans-35" x="127.246094"/>
      </g>
     </g>
    </g>
    <g id="ytick_5">
     <g id="line2d_14">
      <g>
       <use xlink:href="#mf62405181a" x="111.915" y="169.401652" style="stroke: #000000; stroke-width: 0.8"/>
      </g>
     </g>
     <g id="text_15">
      <!-- 250 -->
      <g transform="translate(85.8275 173.200871) scale(0.1 -0.1)">
       <use xlink:href="#DejaVuSans-32"/>
       <use xlink:href="#DejaVuSans-35" x="63.623047"/>
       <use xlink:href="#DejaVuSans-30" x="127.246094"/>
      </g>
     </g>
    </g>
    <g id="ytick_6">
     <g id="line2d_15">
      <g>
       <use xlink:href="#mf62405181a" x="111.915" y="139.574971" style="stroke: #000000; stroke-width: 0.8"/>
      </g>
     </g>
     <g id="text_16">
      <!-- 275 -->
      <g transform="translate(85.8275 143.374189) scale(0.1 -0.1)">
       <use xlink:href="#DejaVuSans-32"/>
       <use xlink:href="#DejaVuSans-37" x="63.623047"/>
       <use xlink:href="#DejaVuSans-35" x="127.246094"/>
      </g>
     </g>
    </g>
    <g id="ytick_7">
     <g id="line2d_16">
      <g>
       <use xlink:href="#mf62405181a" x="111.915" y="109.748289" style="stroke: #000000; stroke-width: 0.8"/>
      </g>
     </g>
     <g id="text_17">
      <!-- 300 -->
      <g transform="translate(85.8275 113.547508) scale(0.1 -0.1)">
       <defs>
        <path id="DejaVuSans-33" d="M 2597 2516 
Q 3050 2419 3304 2112 
Q 3559 1806 3559 1356 
Q 3559 666 3084 287 
Q 2609 -91 1734 -91 
Q 1441 -91 1130 -33 
Q 819 25 488 141 
L 488 750 
Q 750 597 1062 519 
Q 1375 441 1716 441 
Q 2309 441 2620 675 
Q 2931 909 2931 1356 
Q 2931 1769 2642 2001 
Q 2353 2234 1838 2234 
L 1294 2234 
L 1294 2753 
L 1863 2753 
Q 2328 2753 2575 2939 
Q 2822 3125 2822 3475 
Q 2822 3834 2567 4026 
Q 2313 4219 1838 4219 
Q 1578 4219 1281 4162 
Q 984 4106 628 3988 
L 628 4550 
Q 988 4650 1302 4700 
Q 1616 4750 1894 4750 
Q 2613 4750 3031 4423 
Q 3450 4097 3450 3541 
Q 3450 3153 3228 2886 
Q 3006 2619 2597 2516 
z
" transform="scale(0.015625)"/>
       </defs>
       <use xlink:href="#DejaVuSans-33"/>
       <use xlink:href="#DejaVuSans-30" x="63.623047"/>
       <use xlink:href="#DejaVuSans-30" x="127.246094"/>
      </g>
     </g>
    </g>
    <g id="ytick_8">
     <g id="line2d_17">
      <g>
       <use xlink:href="#mf62405181a" x="111.915" y="79.921608" style="stroke: #000000; stroke-width: 0.8"/>
      </g>
     </g>
     <g id="text_18">
      <!-- 325 -->
      <g transform="translate(85.8275 83.720826) scale(0.1 -0.1)">
       <use xlink:href="#DejaVuSans-33"/>
       <use xlink:href="#DejaVuSans-32" x="63.623047"/>
       <use xlink:href="#DejaVuSans-35" x="127.246094"/>
      </g>
     </g>
    </g>
    <g id="ytick_9">
     <g id="line2d_18">
      <g>
       <use xlink:href="#mf62405181a" x="111.915" y="50.094926" style="stroke: #000000; stroke-width: 0.8"/>
      </g>
     </g>
     <g id="text_19">
      <!-- 350 -->
      <g transform="translate(85.8275 53.894145) scale(0.1 -0.1)">
       <use xlink:href="#DejaVuSans-33"/>
       <use xlink:href="#DejaVuSans-35" x="63.623047"/>
       <use xlink:href="#DejaVuSans-30" x="127.246094"/>
      </g>
     </g>
    </g>
    <g id="text_20">
     <!-- $V(10^{-6} m^2/s^2)$ -->
     <g transform="translate(79.747812 199.5652) rotate(-90) scale(0.1 -0.1)">
      <defs>
       <path id="DejaVuSans-Oblique-56" d="M 1319 0 
L 500 4666 
L 1119 4666 
L 1797 653 
L 4063 4666 
L 4750 4666 
L 2053 0 
L 1319 0 
z
" transform="scale(0.015625)"/>
       <path id="DejaVuSans-36" d="M 2113 2584 
Q 1688 2584 1439 2293 
Q 1191 2003 1191 1497 
Q 1191 994 1439 701 
Q 1688 409 2113 409 
Q 2538 409 2786 701 
Q 3034 994 3034 1497 
Q 3034 2003 2786 2293 
Q 2538 2584 2113 2584 
z
M 3366 4563 
L 3366 3988 
Q 3128 4100 2886 4159 
Q 2644 4219 2406 4219 
Q 1781 4219 1451 3797 
Q 1122 3375 1075 2522 
Q 1259 2794 1537 2939 
Q 1816 3084 2150 3084 
Q 2853 3084 3261 2657 
Q 3669 2231 3669 1497 
Q 3669 778 3244 343 
Q 2819 -91 2113 -91 
Q 1303 -91 875 529 
Q 447 1150 447 2328 
Q 447 3434 972 4092 
Q 1497 4750 2381 4750 
Q 2619 4750 2861 4703 
Q 3103 4656 3366 4563 
z
" transform="scale(0.015625)"/>
       <path id="DejaVuSans-2f" d="M 1625 4666 
L 2156 4666 
L 531 -594 
L 0 -594 
L 1625 4666 
z
" transform="scale(0.015625)"/>
       <path id="DejaVuSans-Oblique-73" d="M 3200 3397 
L 3091 2853 
Q 2863 2978 2609 3040 
Q 2356 3103 2088 3103 
Q 1634 3103 1373 2948 
Q 1113 2794 1113 2528 
Q 1113 2219 1719 2053 
Q 1766 2041 1788 2034 
L 1972 1978 
Q 2547 1819 2739 1644 
Q 2931 1469 2931 1166 
Q 2931 609 2489 259 
Q 2047 -91 1331 -91 
Q 1053 -91 747 -37 
Q 441 16 72 128 
L 184 722 
Q 500 559 806 475 
Q 1113 391 1394 391 
Q 1816 391 2080 572 
Q 2344 753 2344 1031 
Q 2344 1331 1650 1516 
L 1591 1531 
L 1394 1581 
Q 956 1697 753 1886 
Q 550 2075 550 2369 
Q 550 2928 970 3256 
Q 1391 3584 2113 3584 
Q 2397 3584 2667 3537 
Q 2938 3491 3200 3397 
z
" transform="scale(0.015625)"/>
      </defs>
      <use xlink:href="#DejaVuSans-Oblique-56" transform="translate(0 0.765625)"/>
      <use xlink:href="#DejaVuSans-28" transform="translate(68.408203 0.765625)"/>
      <use xlink:href="#DejaVuSans-31" transform="translate(107.421875 0.765625)"/>
      <use xlink:href="#DejaVuSans-30" transform="translate(171.044922 0.765625)"/>
      <use xlink:href="#DejaVuSans-2212" transform="translate(235.625 39.046875) scale(0.7)"/>
      <use xlink:href="#DejaVuSans-36" transform="translate(294.277344 39.046875) scale(0.7)"/>
      <use xlink:href="#DejaVuSans-Oblique-6d" transform="translate(341.547852 0.765625)"/>
      <use xlink:href="#DejaVuSans-32" transform="translate(443.609857 39.046875) scale(0.7)"/>
      <use xlink:href="#DejaVuSans-2f" transform="translate(490.880365 0.765625)"/>
      <use xlink:href="#DejaVuSans-Oblique-73" transform="translate(524.571771 0.765625)"/>
      <use xlink:href="#DejaVuSans-32" transform="translate(581.321276 39.046875) scale(0.7)"/>
      <use xlink:href="#DejaVuSans-29" transform="translate(628.591784 0.765625)"/>
     </g>
    </g>
   </g>
   <g id="line2d_19">
    <path d="M 126.251219 281.3292 
L 129.835274 277.536256 
L 133.419329 273.607173 
L 137.003383 269.536084 
L 140.587438 265.316954 
L 144.171493 260.943611 
L 147.755548 256.409776 
L 151.339602 251.709107 
L 154.923657 246.835257 
L 158.507712 241.781945 
L 162.091767 236.543052 
L 165.675821 231.112728 
L 169.259876 225.485537 
L 172.843931 219.65663 
L 176.427986 213.62195 
L 180.01204 207.378489 
L 183.596095 200.924583 
L 187.18015 194.260275 
L 190.764205 187.387732 
L 194.348259 180.311731 
L 197.932314 173.040217 
L 201.516369 165.584934 
L 205.100424 157.962126 
L 208.684478 150.193294 
L 212.268533 142.305994 
L 215.852588 134.334653 
L 219.436643 126.321342 
L 223.020697 118.316457 
L 226.604752 110.379233 
L 230.188807 102.577979 
L 233.772862 94.989934 
L 237.356916 87.700626 
L 240.940971 80.802622 
L 244.525026 74.393585 
L 248.109081 68.573606 
L 251.693135 63.441843 
L 255.27719 59.092597 
L 258.861245 55.61106 
L 262.4453 53.06904 
L 266.029354 51.52106 
L 269.613409 51.0012 
L 273.197464 51.52106 
L 276.781519 53.06904 
L 280.365573 55.61106 
L 283.949628 59.092597 
L 287.533683 63.441843 
L 291.117738 68.573606 
L 294.701792 74.393585 
L 298.285847 80.802622 
L 301.869902 87.700626 
L 305.453957 94.989934 
L 309.038011 102.577979 
L 312.622066 110.379233 
L 316.206121 118.316457 
L 319.790176 126.321342 
L 323.37423 134.334653 
L 326.958285 142.305994 
L 330.54234 150.193294 
L 334.126395 157.962126 
L 337.710449 165.584934 
L 341.294504 173.040217 
L 344.878559 180.311731 
L 348.462614 187.387732 
L 352.046668 194.260275 
L 355.630723 200.924583 
L 359.214778 207.378489 
L 362.798833 213.62195 
L 366.382887 219.65663 
L 369.966942 225.485537 
L 373.550997 231.112728 
L 377.135052 236.543052 
L 380.719106 241.781945 
L 384.303161 246.835257 
L 387.887216 251.709107 
L 391.471271 256.409776 
L 395.055325 260.943611 
L 398.63938 265.316954 
L 402.223435 269.536084 
L 405.80749 273.607173 
L 409.391544 277.536256 
L 412.975599 281.3292 
" clip-path="url(#pcab3250289)" style="fill: none; stroke: #1f77b4; stroke-width: 1.5; stroke-linecap: square"/>
   </g>
   <g id="patch_3">
    <path d="M 111.915 292.8456 
L 111.915 39.4848 
" style="fill: none; stroke: #000000; stroke-width: 0.8; stroke-linejoin: miter; stroke-linecap: square"/>
   </g>
   <g id="patch_4">
    <path d="M 427.311818 292.8456 
L 427.311818 39.4848 
" style="fill: none; stroke: #000000; stroke-width: 0.8; stroke-linejoin: miter; stroke-linecap: square"/>
   </g>
   <g id="patch_5">
    <path d="M 111.915 292.8456 
L 427.311818 292.8456 
" style="fill: none; stroke: #000000; stroke-width: 0.8; stroke-linejoin: miter; stroke-linecap: square"/>
   </g>
   <g id="patch_6">
    <path d="M 111.915 39.4848 
L 427.311818 39.4848 
" style="fill: none; stroke: #000000; stroke-width: 0.8; stroke-linejoin: miter; stroke-linecap: square"/>
   </g>
   <g id="text_21">
    <!-- $V\ Slice$ -->
    <g transform="translate(249.393409 33.4848) scale(0.12 -0.12)">
     <defs>
      <path id="DejaVuSans-Oblique-53" d="M 3859 4513 
L 3738 3897 
Q 3422 4066 3111 4152 
Q 2800 4238 2509 4238 
Q 1944 4238 1609 3991 
Q 1275 3744 1275 3334 
Q 1275 3109 1398 2989 
Q 1522 2869 2034 2731 
L 2413 2638 
Q 3053 2472 3303 2217 
Q 3553 1963 3553 1503 
Q 3553 797 2998 353 
Q 2444 -91 1538 -91 
Q 1166 -91 791 -17 
Q 416 56 38 206 
L 166 856 
Q 513 641 861 531 
Q 1209 422 1556 422 
Q 2147 422 2503 684 
Q 2859 947 2859 1369 
Q 2859 1650 2717 1795 
Q 2575 1941 2106 2059 
L 1728 2156 
Q 1081 2325 845 2545 
Q 609 2766 609 3163 
Q 609 3859 1145 4304 
Q 1681 4750 2541 4750 
Q 2875 4750 3203 4690 
Q 3531 4631 3859 4513 
z
" transform="scale(0.015625)"/>
      <path id="DejaVuSans-Oblique-6c" d="M 1172 4863 
L 1747 4863 
L 800 0 
L 225 0 
L 1172 4863 
z
" transform="scale(0.015625)"/>
      <path id="DejaVuSans-Oblique-69" d="M 1172 4863 
L 1747 4863 
L 1606 4134 
L 1031 4134 
L 1172 4863 
z
M 909 3500 
L 1484 3500 
L 800 0 
L 225 0 
L 909 3500 
z
" transform="scale(0.015625)"/>
      <path id="DejaVuSans-Oblique-63" d="M 3431 3366 
L 3316 2797 
Q 3109 2947 2876 3022 
Q 2644 3097 2394 3097 
Q 2119 3097 1870 3000 
Q 1622 2903 1453 2725 
Q 1184 2453 1037 2087 
Q 891 1722 891 1331 
Q 891 859 1127 628 
Q 1363 397 1844 397 
Q 2081 397 2348 469 
Q 2616 541 2906 684 
L 2797 116 
Q 2547 13 2283 -39 
Q 2019 -91 1741 -91 
Q 1044 -91 669 257 
Q 294 606 294 1253 
Q 294 1797 489 2255 
Q 684 2713 1069 3078 
Q 1331 3328 1684 3456 
Q 2038 3584 2456 3584 
Q 2700 3584 2940 3529 
Q 3181 3475 3431 3366 
z
" transform="scale(0.015625)"/>
      <path id="DejaVuSans-Oblique-65" d="M 3078 2063 
Q 3088 2113 3092 2166 
Q 3097 2219 3097 2272 
Q 3097 2653 2873 2875 
Q 2650 3097 2266 3097 
Q 1838 3097 1509 2826 
Q 1181 2556 1013 2059 
L 3078 2063 
z
M 3578 1613 
L 903 1613 
Q 884 1494 878 1425 
Q 872 1356 872 1306 
Q 872 872 1139 634 
Q 1406 397 1894 397 
Q 2269 397 2603 481 
Q 2938 566 3225 728 
L 3116 159 
Q 2806 34 2476 -28 
Q 2147 -91 1806 -91 
Q 1078 -91 686 257 
Q 294 606 294 1247 
Q 294 1794 489 2264 
Q 684 2734 1063 3103 
Q 1306 3334 1642 3459 
Q 1978 3584 2356 3584 
Q 2950 3584 3301 3228 
Q 3653 2872 3653 2272 
Q 3653 2128 3634 1964 
Q 3616 1800 3578 1613 
z
" transform="scale(0.015625)"/>
     </defs>
     <use xlink:href="#DejaVuSans-Oblique-56" transform="translate(0 0.015625)"/>
     <use xlink:href="#DejaVuSans-Oblique-53" transform="translate(100.878582 0.015625)"/>
     <use xlink:href="#DejaVuSans-Oblique-6c" transform="translate(164.355144 0.015625)"/>
     <use xlink:href="#DejaVuSans-Oblique-69" transform="translate(192.138347 0.015625)"/>
     <use xlink:href="#DejaVuSans-Oblique-63" transform="translate(219.92155 0.015625)"/>
     <use xlink:href="#DejaVuSans-Oblique-65" transform="translate(274.902019 0.015625)"/>
    </g>
   </g>
  </g>
  <g id="axes_2">
   <g id="patch_7">
    <path d="M 490.391182 292.8456 
L 805.788 292.8456 
L 805.788 39.4848 
L 490.391182 39.4848 
z
" style="fill: #ffffff"/>
   </g>
   <g id="matplotlib.axis_3">
    <g id="xtick_10">
     <g id="line2d_20">
      <g>
       <use xlink:href="#me6f84981f5" x="504.727401" y="292.8456" style="stroke: #000000; stroke-width: 0.8"/>
      </g>
     </g>
     <g id="text_22">
      <!-- −200 -->
      <g transform="translate(490.993807 307.444038) scale(0.1 -0.1)">
       <use xlink:href="#DejaVuSans-2212"/>
       <use xlink:href="#DejaVuSans-32" x="83.789062"/>
       <use xlink:href="#DejaVuSans-30" x="147.412109"/>
       <use xlink:href="#DejaVuSans-30" x="211.035156"/>
      </g>
     </g>
    </g>
    <g id="xtick_11">
     <g id="line2d_21">
      <g>
       <use xlink:href="#me6f84981f5" x="540.567948" y="292.8456" style="stroke: #000000; stroke-width: 0.8"/>
      </g>
     </g>
     <g id="text_23">
      <!-- −150 -->
      <g transform="translate(526.834355 307.444038) scale(0.1 -0.1)">
       <use xlink:href="#DejaVuSans-2212"/>
       <use xlink:href="#DejaVuSans-31" x="83.789062"/>
       <use xlink:href="#DejaVuSans-35" x="147.412109"/>
       <use xlink:href="#DejaVuSans-30" x="211.035156"/>
      </g>
     </g>
    </g>
    <g id="xtick_12">
     <g id="line2d_22">
      <g>
       <use xlink:href="#me6f84981f5" x="576.408496" y="292.8456" style="stroke: #000000; stroke-width: 0.8"/>
      </g>
     </g>
     <g id="text_24">
      <!-- −100 -->
      <g transform="translate(562.674902 307.444038) scale(0.1 -0.1)">
       <use xlink:href="#DejaVuSans-2212"/>
       <use xlink:href="#DejaVuSans-31" x="83.789062"/>
       <use xlink:href="#DejaVuSans-30" x="147.412109"/>
       <use xlink:href="#DejaVuSans-30" x="211.035156"/>
      </g>
     </g>
    </g>
    <g id="xtick_13">
     <g id="line2d_23">
      <g>
       <use xlink:href="#me6f84981f5" x="612.249043" y="292.8456" style="stroke: #000000; stroke-width: 0.8"/>
      </g>
     </g>
     <g id="text_25">
      <!-- −50 -->
      <g transform="translate(601.6967 307.444038) scale(0.1 -0.1)">
       <use xlink:href="#DejaVuSans-2212"/>
       <use xlink:href="#DejaVuSans-35" x="83.789062"/>
       <use xlink:href="#DejaVuSans-30" x="147.412109"/>
      </g>
     </g>
    </g>
    <g id="xtick_14">
     <g id="line2d_24">
      <g>
       <use xlink:href="#me6f84981f5" x="648.089591" y="292.8456" style="stroke: #000000; stroke-width: 0.8"/>
      </g>
     </g>
     <g id="text_26">
      <!-- 0 -->
      <g transform="translate(644.908341 307.444038) scale(0.1 -0.1)">
       <use xlink:href="#DejaVuSans-30"/>
      </g>
     </g>
    </g>
    <g id="xtick_15">
     <g id="line2d_25">
      <g>
       <use xlink:href="#me6f84981f5" x="683.930138" y="292.8456" style="stroke: #000000; stroke-width: 0.8"/>
      </g>
     </g>
     <g id="text_27">
      <!-- 50 -->
      <g transform="translate(677.567638 307.444038) scale(0.1 -0.1)">
       <use xlink:href="#DejaVuSans-35"/>
       <use xlink:href="#DejaVuSans-30" x="63.623047"/>
      </g>
     </g>
    </g>
    <g id="xtick_16">
     <g id="line2d_26">
      <g>
       <use xlink:href="#me6f84981f5" x="719.770686" y="292.8456" style="stroke: #000000; stroke-width: 0.8"/>
      </g>
     </g>
     <g id="text_28">
      <!-- 100 -->
      <g transform="translate(710.226936 307.444038) scale(0.1 -0.1)">
       <use xlink:href="#DejaVuSans-31"/>
       <use xlink:href="#DejaVuSans-30" x="63.623047"/>
       <use xlink:href="#DejaVuSans-30" x="127.246094"/>
      </g>
     </g>
    </g>
    <g id="xtick_17">
     <g id="line2d_27">
      <g>
       <use xlink:href="#me6f84981f5" x="755.611233" y="292.8456" style="stroke: #000000; stroke-width: 0.8"/>
      </g>
     </g>
     <g id="text_29">
      <!-- 150 -->
      <g transform="translate(746.067483 307.444038) scale(0.1 -0.1)">
       <use xlink:href="#DejaVuSans-31"/>
       <use xlink:href="#DejaVuSans-35" x="63.623047"/>
       <use xlink:href="#DejaVuSans-30" x="127.246094"/>
      </g>
     </g>
    </g>
    <g id="xtick_18">
     <g id="line2d_28">
      <g>
       <use xlink:href="#me6f84981f5" x="791.451781" y="292.8456" style="stroke: #000000; stroke-width: 0.8"/>
      </g>
     </g>
     <g id="text_30">
      <!-- 200 -->
      <g transform="translate(781.908031 307.444038) scale(0.1 -0.1)">
       <use xlink:href="#DejaVuSans-32"/>
       <use xlink:href="#DejaVuSans-30" x="63.623047"/>
       <use xlink:href="#DejaVuSans-30" x="127.246094"/>
      </g>
     </g>
    </g>
    <g id="text_31">
     <!-- $X(m)$ -->
     <g transform="translate(635.889591 321.122163) scale(0.1 -0.1)">
      <use xlink:href="#DejaVuSans-Oblique-58" transform="translate(0 0.125)"/>
      <use xlink:href="#DejaVuSans-28" transform="translate(68.505859 0.125)"/>
      <use xlink:href="#DejaVuSans-Oblique-6d" transform="translate(107.519531 0.125)"/>
      <use xlink:href="#DejaVuSans-29" transform="translate(204.931641 0.125)"/>
     </g>
    </g>
   </g>
   <g id="matplotlib.axis_4">
    <g id="ytick_10">
     <g id="line2d_29">
      <g>
       <use xlink:href="#mf62405181a" x="490.391182" y="264.940608" style="stroke: #000000; stroke-width: 0.8"/>
      </g>
     </g>
     <g id="text_32">
      <!-- −1 -->
      <g transform="translate(468.648994 268.739827) scale(0.1 -0.1)">
       <use xlink:href="#DejaVuSans-2212"/>
       <use xlink:href="#DejaVuSans-31" x="83.789062"/>
      </g>
     </g>
    </g>
    <g id="ytick_11">
     <g id="line2d_30">
      <g>
       <use xlink:href="#mf62405181a" x="490.391182" y="217.318129" style="stroke: #000000; stroke-width: 0.8"/>
      </g>
     </g>
     <g id="text_33">
      <!-- 0 -->
      <g transform="translate(477.028682 221.117348) scale(0.1 -0.1)">
       <use xlink:href="#DejaVuSans-30"/>
      </g>
     </g>
    </g>
    <g id="ytick_12">
     <g id="line2d_31">
      <g>
       <use xlink:href="#mf62405181a" x="490.391182" y="169.69565" style="stroke: #000000; stroke-width: 0.8"/>
      </g>
     </g>
     <g id="text_34">
      <!-- 1 -->
      <g transform="translate(477.028682 173.494868) scale(0.1 -0.1)">
       <use xlink:href="#DejaVuSans-31"/>
      </g>
     </g>
    </g>
    <g id="ytick_13">
     <g id="line2d_32">
      <g>
       <use xlink:href="#mf62405181a" x="490.391182" y="122.073171" style="stroke: #000000; stroke-width: 0.8"/>
      </g>
     </g>
     <g id="text_35">
      <!-- 2 -->
      <g transform="translate(477.028682 125.872389) scale(0.1 -0.1)">
       <use xlink:href="#DejaVuSans-32"/>
      </g>
     </g>
    </g>
    <g id="ytick_14">
     <g id="line2d_33">
      <g>
       <use xlink:href="#mf62405181a" x="490.391182" y="74.450691" style="stroke: #000000; stroke-width: 0.8"/>
      </g>
     </g>
     <g id="text_36">
      <!-- 3 -->
      <g transform="translate(477.028682 78.24991) scale(0.1 -0.1)">
       <use xlink:href="#DejaVuSans-33"/>
      </g>
     </g>
    </g>
    <g id="text_37">
     <!-- $V_{diff}(g.u.)$ -->
     <g transform="translate(462.548994 190.7652) rotate(-90) scale(0.1 -0.1)">
      <defs>
       <path id="DejaVuSans-Oblique-64" d="M 2675 525 
Q 2444 222 2128 65 
Q 1813 -91 1428 -91 
Q 903 -91 598 267 
Q 294 625 294 1247 
Q 294 1766 478 2236 
Q 663 2706 1013 3078 
Q 1244 3325 1534 3454 
Q 1825 3584 2144 3584 
Q 2481 3584 2739 3421 
Q 2997 3259 3138 2956 
L 3513 4863 
L 4091 4863 
L 3144 0 
L 2566 0 
L 2675 525 
z
M 891 1350 
Q 891 897 1095 644 
Q 1300 391 1663 391 
Q 1931 391 2161 520 
Q 2391 650 2566 903 
Q 2750 1166 2856 1509 
Q 2963 1853 2963 2188 
Q 2963 2622 2758 2865 
Q 2553 3109 2194 3109 
Q 1922 3109 1687 2981 
Q 1453 2853 1288 2613 
Q 1106 2353 998 2009 
Q 891 1666 891 1350 
z
" transform="scale(0.015625)"/>
       <path id="DejaVuSans-Oblique-66" d="M 3059 4863 
L 2969 4384 
L 2419 4384 
Q 2106 4384 1964 4261 
Q 1822 4138 1753 3809 
L 1691 3500 
L 2638 3500 
L 2553 3053 
L 1606 3053 
L 1013 0 
L 434 0 
L 1031 3053 
L 481 3053 
L 563 3500 
L 1113 3500 
L 1159 3744 
Q 1278 4363 1576 4613 
Q 1875 4863 2516 4863 
L 3059 4863 
z
" transform="scale(0.015625)"/>
       <path id="DejaVuSans-Oblique-67" d="M 3816 3500 
L 3219 434 
Q 3047 -456 2561 -893 
Q 2075 -1331 1253 -1331 
Q 950 -1331 690 -1286 
Q 431 -1241 206 -1147 
L 313 -588 
Q 525 -725 762 -790 
Q 1000 -856 1269 -856 
Q 1816 -856 2167 -557 
Q 2519 -259 2631 300 
L 2681 563 
Q 2441 288 2122 144 
Q 1803 0 1434 0 
Q 903 0 598 351 
Q 294 703 294 1319 
Q 294 1803 478 2267 
Q 663 2731 997 3091 
Q 1219 3328 1514 3456 
Q 1809 3584 2131 3584 
Q 2484 3584 2746 3420 
Q 3009 3256 3138 2956 
L 3238 3500 
L 3816 3500 
z
M 2950 2216 
Q 2950 2641 2750 2872 
Q 2550 3103 2181 3103 
Q 1953 3103 1747 3012 
Q 1541 2922 1394 2759 
Q 1156 2491 1023 2127 
Q 891 1763 891 1375 
Q 891 944 1092 712 
Q 1294 481 1672 481 
Q 2219 481 2584 976 
Q 2950 1472 2950 2216 
z
" transform="scale(0.015625)"/>
       <path id="DejaVuSans-2e" d="M 684 794 
L 1344 794 
L 1344 0 
L 684 0 
L 684 794 
z
" transform="scale(0.015625)"/>
       <path id="DejaVuSans-Oblique-75" d="M 428 1388 
L 838 3500 
L 1416 3500 
L 1006 1409 
Q 975 1256 961 1147 
Q 947 1038 947 966 
Q 947 700 1109 554 
Q 1272 409 1569 409 
Q 2031 409 2368 721 
Q 2706 1034 2809 1563 
L 3194 3500 
L 3769 3500 
L 3091 0 
L 2516 0 
L 2631 550 
Q 2388 244 2052 76 
Q 1716 -91 1338 -91 
Q 878 -91 622 161 
Q 366 413 366 863 
Q 366 956 381 1097 
Q 397 1238 428 1388 
z
" transform="scale(0.015625)"/>
      </defs>
      <use xlink:href="#DejaVuSans-Oblique-56" transform="translate(0 0.125)"/>
      <use xlink:href="#DejaVuSans-Oblique-64" transform="translate(68.408203 -16.28125) scale(0.7)"/>
      <use xlink:href="#DejaVuSans-Oblique-69" transform="translate(112.841797 -16.28125) scale(0.7)"/>
      <use xlink:href="#DejaVuSans-Oblique-66" transform="translate(132.290039 -16.28125) scale(0.7)"/>
      <use xlink:href="#DejaVuSans-Oblique-66" transform="translate(156.933594 -16.28125) scale(0.7)"/>
      <use xlink:href="#DejaVuSans-28" transform="translate(184.311523 0.125)"/>
      <use xlink:href="#DejaVuSans-Oblique-67" transform="translate(223.325195 0.125)"/>
      <use xlink:href="#DejaVuSans-2e" transform="translate(286.801758 0.125)"/>
      <use xlink:href="#DejaVuSans-Oblique-75" transform="translate(338.071289 0.125)"/>
      <use xlink:href="#DejaVuSans-2e" transform="translate(401.450195 0.125)"/>
      <use xlink:href="#DejaVuSans-29" transform="translate(452.719727 0.125)"/>
     </g>
    </g>
   </g>
   <g id="line2d_34">
    <path d="M 504.727401 187.566452 
L 508.311456 186.502573 
L 511.89551 185.392558 
L 515.479565 184.235012 
L 519.06362 183.028706 
L 522.647675 181.772644 
L 526.231729 180.466136 
L 529.815784 179.108894 
L 533.399839 177.701142 
L 536.983894 176.243755 
L 540.567948 174.738421 
L 544.152003 173.18784 
L 547.736058 171.595949 
L 551.320113 169.968203 
L 554.904167 168.311888 
L 558.488222 166.636489 
L 562.072277 164.954111 
L 565.656332 163.279949 
L 569.240386 161.632807 
L 572.824441 160.035657 
L 576.408496 158.516215 
L 579.992551 157.107514 
L 583.576605 155.848427 
L 587.16066 154.784082 
L 590.744715 153.966079 
L 594.32877 153.452428 
L 597.912824 153.307058 
L 601.496879 153.598769 
L 605.080934 154.399486 
L 608.664989 155.781663 
L 612.249043 157.814775 
L 615.833098 160.560879 
L 619.417153 164.069373 
L 623.001208 168.371253 
L 626.585262 173.473342 
L 630.169317 179.353159 
L 633.753372 185.955212 
L 637.337427 193.189495 
L 640.921481 200.932829 
L 644.505536 209.03337 
L 648.089591 217.318129 
L 651.673646 225.602888 
L 655.2577 233.703429 
L 658.841755 241.446763 
L 662.42581 248.681046 
L 666.009865 255.283099 
L 669.593919 261.162916 
L 673.177974 266.265005 
L 676.762029 270.566885 
L 680.346084 274.075379 
L 683.930138 276.821482 
L 687.514193 278.854594 
L 691.098248 280.236772 
L 694.682303 281.037488 
L 698.266357 281.3292 
L 701.850412 281.18383 
L 705.434467 280.670179 
L 709.018522 279.852176 
L 712.602576 278.78783 
L 716.186631 277.528744 
L 719.770686 276.120043 
L 723.354741 274.600601 
L 726.938795 273.00345 
L 730.52285 271.356309 
L 734.106905 269.682147 
L 737.69096 267.999769 
L 741.275014 266.32437 
L 744.859069 264.668054 
L 748.443124 263.040309 
L 752.027179 261.448418 
L 755.611233 259.897836 
L 759.195288 258.392503 
L 762.779343 256.935116 
L 766.363398 255.527364 
L 769.947452 254.170122 
L 773.531507 252.863614 
L 777.115562 251.607552 
L 780.699617 250.401246 
L 784.283671 249.2437 
L 787.867726 248.133685 
L 791.451781 247.069806 
" clip-path="url(#paec54bba9d)" style="fill: none; stroke: #1f77b4; stroke-width: 1.5; stroke-linecap: square"/>
   </g>
   <g id="line2d_35">
    <path d="M 504.727401 217.318129 
L 508.311456 217.318129 
L 511.89551 217.318129 
L 515.479565 217.318129 
L 519.06362 217.318129 
L 522.647675 217.318129 
L 526.231729 217.318129 
L 529.815784 217.318129 
L 533.399839 217.318129 
L 536.983894 217.318129 
L 540.567948 217.318129 
L 544.152003 217.318129 
L 547.736058 217.318129 
L 551.320113 217.318129 
L 554.904167 217.318129 
L 558.488222 217.318129 
L 562.072277 217.318129 
L 565.656332 217.318129 
L 569.240386 217.318129 
L 572.824441 217.318129 
L 576.408496 217.318129 
L 579.992551 217.318129 
L 583.576605 217.318129 
L 587.16066 217.318129 
L 590.744715 217.318129 
L 594.32877 217.318129 
L 597.912824 217.318129 
L 601.496879 217.318129 
L 605.080934 217.318129 
L 608.664989 217.318129 
L 612.249043 217.318129 
L 615.833098 217.318129 
L 619.417153 217.318129 
L 623.001208 217.318129 
L 626.585262 217.318129 
L 630.169317 217.318129 
L 633.753372 217.318129 
L 637.337427 217.318129 
L 640.921481 217.318129 
L 644.505536 217.318129 
L 648.089591 217.318129 
L 651.673646 217.318129 
L 655.2577 217.318129 
L 658.841755 217.318129 
L 662.42581 217.318129 
L 666.009865 217.318129 
L 669.593919 217.318129 
L 673.177974 217.318129 
L 676.762029 217.318129 
L 680.346084 217.318129 
L 683.930138 217.318129 
L 687.514193 217.318129 
L 691.098248 217.318129 
L 694.682303 217.318129 
L 698.266357 217.318129 
L 701.850412 217.318129 
L 705.434467 217.318129 
L 709.018522 217.318129 
L 712.602576 217.318129 
L 716.186631 217.318129 
L 719.770686 217.318129 
L 723.354741 217.318129 
L 726.938795 217.318129 
L 730.52285 217.318129 
L 734.106905 217.318129 
L 737.69096 217.318129 
L 741.275014 217.318129 
L 744.859069 217.318129 
L 748.443124 217.318129 
L 752.027179 217.318129 
L 755.611233 217.318129 
L 759.195288 217.318129 
L 762.779343 217.318129 
L 766.363398 217.318129 
L 769.947452 217.318129 
L 773.531507 217.318129 
L 777.115562 217.318129 
L 780.699617 217.318129 
L 784.283671 217.318129 
L 787.867726 217.318129 
L 791.451781 217.318129 
" clip-path="url(#paec54bba9d)" style="fill: none; stroke: #ff7f0e; stroke-width: 1.5; stroke-linecap: square"/>
   </g>
   <g id="line2d_36">
    <path d="M 504.727401 202.442291 
L 508.311456 201.51528 
L 511.89551 200.515197 
L 515.479565 199.435363 
L 519.06362 198.268449 
L 522.647675 197.006423 
L 526.231729 195.640486 
L 529.815784 194.161017 
L 533.399839 192.557512 
L 536.983894 190.818533 
L 540.567948 188.931657 
L 544.152003 186.883447 
L 547.736058 184.659429 
L 551.320113 182.24411 
L 554.904167 179.621021 
L 558.488222 176.772817 
L 562.072277 173.681447 
L 565.656332 170.328407 
L 569.240386 166.695109 
L 572.824441 162.763394 
L 576.408496 158.516215 
L 579.992551 153.938534 
L 583.576605 149.018461 
L 587.16066 143.748662 
L 590.744715 138.128067 
L 594.32877 132.163861 
L 597.912824 125.873742 
L 601.496879 119.288345 
L 605.080934 112.453725 
L 608.664989 105.433646 
L 612.249043 98.311422 
L 615.833098 91.190907 
L 619.417153 84.196239 
L 623.001208 77.469912 
L 626.585262 71.168839 
L 630.169317 65.45825 
L 633.753372 60.503546 
L 637.337427 56.460567 
L 640.921481 53.465129 
L 644.505536 51.622945 
L 648.089591 51.0012 
L 651.673646 51.622945 
L 655.2577 53.465129 
L 658.841755 56.460567 
L 662.42581 60.503546 
L 666.009865 65.45825 
L 669.593919 71.168839 
L 673.177974 77.469912 
L 676.762029 84.196239 
L 680.346084 91.190907 
L 683.930138 98.311422 
L 687.514193 105.433646 
L 691.098248 112.453725 
L 694.682303 119.288345 
L 698.266357 125.873742 
L 701.850412 132.163861 
L 705.434467 138.128067 
L 709.018522 143.748662 
L 712.602576 149.018461 
L 716.186631 153.938534 
L 719.770686 158.516215 
L 723.354741 162.763394 
L 726.938795 166.695109 
L 730.52285 170.328407 
L 734.106905 173.681447 
L 737.69096 176.772817 
L 741.275014 179.621021 
L 744.859069 182.24411 
L 748.443124 184.659429 
L 752.027179 186.883447 
L 755.611233 188.931657 
L 759.195288 190.818533 
L 762.779343 192.557512 
L 766.363398 194.161017 
L 769.947452 195.640486 
L 773.531507 197.006423 
L 777.115562 198.268449 
L 780.699617 199.435363 
L 784.283671 200.515197 
L 787.867726 201.51528 
L 791.451781 202.442291 
" clip-path="url(#paec54bba9d)" style="fill: none; stroke: #2ca02c; stroke-width: 1.5; stroke-linecap: square"/>
   </g>
   <g id="patch_8">
    <path d="M 490.391182 292.8456 
L 490.391182 39.4848 
" style="fill: none; stroke: #000000; stroke-width: 0.8; stroke-linejoin: miter; stroke-linecap: square"/>
   </g>
   <g id="patch_9">
    <path d="M 805.788 292.8456 
L 805.788 39.4848 
" style="fill: none; stroke: #000000; stroke-width: 0.8; stroke-linejoin: miter; stroke-linecap: square"/>
   </g>
   <g id="patch_10">
    <path d="M 490.391182 292.8456 
L 805.788 292.8456 
" style="fill: none; stroke: #000000; stroke-width: 0.8; stroke-linejoin: miter; stroke-linecap: square"/>
   </g>
   <g id="patch_11">
    <path d="M 490.391182 39.4848 
L 805.788 39.4848 
" style="fill: none; stroke: #000000; stroke-width: 0.8; stroke-linejoin: miter; stroke-linecap: square"/>
   </g>
   <g id="text_38">
    <!-- $V_{diff}\ Slice$ -->
    <g transform="translate(620.909591 33.4848) scale(0.12 -0.12)">
     <use xlink:href="#DejaVuSans-Oblique-56" transform="translate(0 0.015625)"/>
     <use xlink:href="#DejaVuSans-Oblique-64" transform="translate(68.408203 -16.390625) scale(0.7)"/>
     <use xlink:href="#DejaVuSans-Oblique-69" transform="translate(112.841797 -16.390625) scale(0.7)"/>
     <use xlink:href="#DejaVuSans-Oblique-66" transform="translate(132.290039 -16.390625) scale(0.7)"/>
     <use xlink:href="#DejaVuSans-Oblique-66" transform="translate(156.933594 -16.390625) scale(0.7)"/>
     <use xlink:href="#DejaVuSans-Oblique-53" transform="translate(216.781902 0.015625)"/>
     <use xlink:href="#DejaVuSans-Oblique-6c" transform="translate(280.258464 0.015625)"/>
     <use xlink:href="#DejaVuSans-Oblique-69" transform="translate(308.041667 0.015625)"/>
     <use xlink:href="#DejaVuSans-Oblique-63" transform="translate(335.824871 0.015625)"/>
     <use xlink:href="#DejaVuSans-Oblique-65" transform="translate(390.805339 0.015625)"/>
    </g>
   </g>
   <g id="legend_1">
    <g id="patch_12">
     <path d="M 754.028625 91.519175 
L 798.788 91.519175 
Q 800.788 91.519175 800.788 89.519175 
L 800.788 46.4848 
Q 800.788 44.4848 798.788 44.4848 
L 754.028625 44.4848 
Q 752.028625 44.4848 752.028625 46.4848 
L 752.028625 89.519175 
Q 752.028625 91.519175 754.028625 91.519175 
z
" style="fill: #ffffff; opacity: 0.8; stroke: #cccccc; stroke-linejoin: miter"/>
    </g>
    <g id="line2d_37">
     <path d="M 756.028625 52.583237 
L 766.028625 52.583237 
L 776.028625 52.583237 
" style="fill: none; stroke: #1f77b4; stroke-width: 1.5; stroke-linecap: square"/>
    </g>
    <g id="text_39">
     <!-- Vx -->
     <g transform="translate(784.028625 56.083237) scale(0.1 -0.1)">
      <defs>
       <path id="DejaVuSans-56" d="M 1831 0 
L 50 4666 
L 709 4666 
L 2188 738 
L 3669 4666 
L 4325 4666 
L 2547 0 
L 1831 0 
z
" transform="scale(0.015625)"/>
       <path id="DejaVuSans-78" d="M 3513 3500 
L 2247 1797 
L 3578 0 
L 2900 0 
L 1881 1375 
L 863 0 
L 184 0 
L 1544 1831 
L 300 3500 
L 978 3500 
L 1906 2253 
L 2834 3500 
L 3513 3500 
z
" transform="scale(0.015625)"/>
      </defs>
      <use xlink:href="#DejaVuSans-56"/>
      <use xlink:href="#DejaVuSans-78" x="68.408203"/>
     </g>
    </g>
    <g id="line2d_38">
     <path d="M 756.028625 67.261363 
L 766.028625 67.261363 
L 776.028625 67.261363 
" style="fill: none; stroke: #ff7f0e; stroke-width: 1.5; stroke-linecap: square"/>
    </g>
    <g id="text_40">
     <!-- Vy -->
     <g transform="translate(784.028625 70.761363) scale(0.1 -0.1)">
      <defs>
       <path id="DejaVuSans-79" d="M 2059 -325 
Q 1816 -950 1584 -1140 
Q 1353 -1331 966 -1331 
L 506 -1331 
L 506 -850 
L 844 -850 
Q 1081 -850 1212 -737 
Q 1344 -625 1503 -206 
L 1606 56 
L 191 3500 
L 800 3500 
L 1894 763 
L 2988 3500 
L 3597 3500 
L 2059 -325 
z
" transform="scale(0.015625)"/>
      </defs>
      <use xlink:href="#DejaVuSans-56"/>
      <use xlink:href="#DejaVuSans-79" x="65.783203"/>
     </g>
    </g>
    <g id="line2d_39">
     <path d="M 756.028625 81.939487 
L 766.028625 81.939487 
L 776.028625 81.939487 
" style="fill: none; stroke: #2ca02c; stroke-width: 1.5; stroke-linecap: square"/>
    </g>
    <g id="text_41">
     <!-- Vz -->
     <g transform="translate(784.028625 85.439487) scale(0.1 -0.1)">
      <defs>
       <path id="DejaVuSans-7a" d="M 353 3500 
L 3084 3500 
L 3084 2975 
L 922 459 
L 3084 459 
L 3084 0 
L 275 0 
L 275 525 
L 2438 3041 
L 353 3041 
L 353 3500 
z
" transform="scale(0.015625)"/>
      </defs>
      <use xlink:href="#DejaVuSans-56"/>
      <use xlink:href="#DejaVuSans-7a" x="68.408203"/>
     </g>
    </g>
   </g>
  </g>
 </g>
 <defs>
  <clipPath id="pcab3250289">
   <rect x="111.915" y="39.4848" width="315.396818" height="253.3608"/>
  </clipPath>
  <clipPath id="paec54bba9d">
   <rect x="490.391182" y="39.4848" width="315.396818" height="253.3608"/>
  </clipPath>
 </defs>
</svg>
