<?xml version="1.0" encoding="utf-8" standalone="no"?>
<!DOCTYPE svg PUBLIC "-//W3C//DTD SVG 1.1//EN"
  "http://www.w3.org/Graphics/SVG/1.1/DTD/svg11.dtd">
<svg xmlns:xlink="http://www.w3.org/1999/xlink" width="515.88pt" height="470.16pt" viewBox="0 0 515.88 470.16" xmlns="http://www.w3.org/2000/svg" version="1.1">
 <metadata>
  <rdf:RDF xmlns:dc="http://purl.org/dc/elements/1.1/" xmlns:cc="http://creativecommons.org/ns#" xmlns:rdf="http://www.w3.org/1999/02/22-rdf-syntax-ns#">
   <cc:Work>
    <dc:type rdf:resource="http://purl.org/dc/dcmitype/StillImage"/>
    <dc:date>2024-05-11T13:18:27.453197</dc:date>
    <dc:format>image/svg+xml</dc:format>
    <dc:creator>
     <cc:Agent>
      <dc:title>Matplotlib v3.8.4, https://matplotlib.org/</dc:title>
     </cc:Agent>
    </dc:creator>
   </cc:Work>
  </rdf:RDF>
 </metadata>
 <defs>
  <style type="text/css">*{stroke-linejoin: round; stroke-linecap: butt}</style>
 </defs>
 <g id="figure_1">
  <g id="patch_1">
   <path d="M 0 470.16 
L 515.88 470.16 
L 515.88 0 
L 0 0 
z
" style="fill: #ffffff"/>
  </g>
  <g id="axes_1">
   <g id="patch_2">
    <path d="M 64.485 418.4424 
L 464.292 418.4424 
L 464.292 56.4192 
L 64.485 56.4192 
z
" style="fill: #ffffff"/>
   </g>
   <g id="matplotlib.axis_1">
    <g id="xtick_1">
     <g id="line2d_1">
      <defs>
       <path id="ma31dff52ab" d="M 0 0 
L 0 3.5 
" style="stroke: #000000; stroke-width: 0.8"/>
      </defs>
      <g>
       <use xlink:href="#ma31dff52ab" x="82.658045" y="418.4424" style="stroke: #000000; stroke-width: 0.8"/>
      </g>
     </g>
     <g id="text_1">
      <!-- −200 -->
      <g transform="translate(68.924452 433.040838) scale(0.1 -0.1)">
       <defs>
        <path id="DejaVuSans-2212" d="M 678 2272 
L 4684 2272 
L 4684 1741 
L 678 1741 
L 678 2272 
z
" transform="scale(0.015625)"/>
        <path id="DejaVuSans-32" d="M 1228 531 
L 3431 531 
L 3431 0 
L 469 0 
L 469 531 
Q 828 903 1448 1529 
Q 2069 2156 2228 2338 
Q 2531 2678 2651 2914 
Q 2772 3150 2772 3378 
Q 2772 3750 2511 3984 
Q 2250 4219 1831 4219 
Q 1534 4219 1204 4116 
Q 875 4013 500 3803 
L 500 4441 
Q 881 4594 1212 4672 
Q 1544 4750 1819 4750 
Q 2544 4750 2975 4387 
Q 3406 4025 3406 3419 
Q 3406 3131 3298 2873 
Q 3191 2616 2906 2266 
Q 2828 2175 2409 1742 
Q 1991 1309 1228 531 
z
" transform="scale(0.015625)"/>
        <path id="DejaVuSans-30" d="M 2034 4250 
Q 1547 4250 1301 3770 
Q 1056 3291 1056 2328 
Q 1056 1369 1301 889 
Q 1547 409 2034 409 
Q 2525 409 2770 889 
Q 3016 1369 3016 2328 
Q 3016 3291 2770 3770 
Q 2525 4250 2034 4250 
z
M 2034 4750 
Q 2819 4750 3233 4129 
Q 3647 3509 3647 2328 
Q 3647 1150 3233 529 
Q 2819 -91 2034 -91 
Q 1250 -91 836 529 
Q 422 1150 422 2328 
Q 422 3509 836 4129 
Q 1250 4750 2034 4750 
z
" transform="scale(0.015625)"/>
       </defs>
       <use xlink:href="#DejaVuSans-2212"/>
       <use xlink:href="#DejaVuSans-32" x="83.789062"/>
       <use xlink:href="#DejaVuSans-30" x="147.412109"/>
       <use xlink:href="#DejaVuSans-30" x="211.035156"/>
      </g>
     </g>
    </g>
    <g id="xtick_2">
     <g id="line2d_2">
      <g>
       <use xlink:href="#ma31dff52ab" x="128.090659" y="418.4424" style="stroke: #000000; stroke-width: 0.8"/>
      </g>
     </g>
     <g id="text_2">
      <!-- −150 -->
      <g transform="translate(114.357065 433.040838) scale(0.1 -0.1)">
       <defs>
        <path id="DejaVuSans-31" d="M 794 531 
L 1825 531 
L 1825 4091 
L 703 3866 
L 703 4441 
L 1819 4666 
L 2450 4666 
L 2450 531 
L 3481 531 
L 3481 0 
L 794 0 
L 794 531 
z
" transform="scale(0.015625)"/>
        <path id="DejaVuSans-35" d="M 691 4666 
L 3169 4666 
L 3169 4134 
L 1269 4134 
L 1269 2991 
Q 1406 3038 1543 3061 
Q 1681 3084 1819 3084 
Q 2600 3084 3056 2656 
Q 3513 2228 3513 1497 
Q 3513 744 3044 326 
Q 2575 -91 1722 -91 
Q 1428 -91 1123 -41 
Q 819 9 494 109 
L 494 744 
Q 775 591 1075 516 
Q 1375 441 1709 441 
Q 2250 441 2565 725 
Q 2881 1009 2881 1497 
Q 2881 1984 2565 2268 
Q 2250 2553 1709 2553 
Q 1456 2553 1204 2497 
Q 953 2441 691 2322 
L 691 4666 
z
" transform="scale(0.015625)"/>
       </defs>
       <use xlink:href="#DejaVuSans-2212"/>
       <use xlink:href="#DejaVuSans-31" x="83.789062"/>
       <use xlink:href="#DejaVuSans-35" x="147.412109"/>
       <use xlink:href="#DejaVuSans-30" x="211.035156"/>
      </g>
     </g>
    </g>
    <g id="xtick_3">
     <g id="line2d_3">
      <g>
       <use xlink:href="#ma31dff52ab" x="173.523273" y="418.4424" style="stroke: #000000; stroke-width: 0.8"/>
      </g>
     </g>
     <g id="text_3">
      <!-- −100 -->
      <g transform="translate(159.789679 433.040838) scale(0.1 -0.1)">
       <use xlink:href="#DejaVuSans-2212"/>
       <use xlink:href="#DejaVuSans-31" x="83.789062"/>
       <use xlink:href="#DejaVuSans-30" x="147.412109"/>
       <use xlink:href="#DejaVuSans-30" x="211.035156"/>
      </g>
     </g>
    </g>
    <g id="xtick_4">
     <g id="line2d_4">
      <g>
       <use xlink:href="#ma31dff52ab" x="218.955886" y="418.4424" style="stroke: #000000; stroke-width: 0.8"/>
      </g>
     </g>
     <g id="text_4">
      <!-- −50 -->
      <g transform="translate(208.403543 433.040838) scale(0.1 -0.1)">
       <use xlink:href="#DejaVuSans-2212"/>
       <use xlink:href="#DejaVuSans-35" x="83.789062"/>
       <use xlink:href="#DejaVuSans-30" x="147.412109"/>
      </g>
     </g>
    </g>
    <g id="xtick_5">
     <g id="line2d_5">
      <g>
       <use xlink:href="#ma31dff52ab" x="264.3885" y="418.4424" style="stroke: #000000; stroke-width: 0.8"/>
      </g>
     </g>
     <g id="text_5">
      <!-- 0 -->
      <g transform="translate(261.20725 433.040838) scale(0.1 -0.1)">
       <use xlink:href="#DejaVuSans-30"/>
      </g>
     </g>
    </g>
    <g id="xtick_6">
     <g id="line2d_6">
      <g>
       <use xlink:href="#ma31dff52ab" x="309.821114" y="418.4424" style="stroke: #000000; stroke-width: 0.8"/>
      </g>
     </g>
     <g id="text_6">
      <!-- 50 -->
      <g transform="translate(303.458614 433.040838) scale(0.1 -0.1)">
       <use xlink:href="#DejaVuSans-35"/>
       <use xlink:href="#DejaVuSans-30" x="63.623047"/>
      </g>
     </g>
    </g>
    <g id="xtick_7">
     <g id="line2d_7">
      <g>
       <use xlink:href="#ma31dff52ab" x="355.253727" y="418.4424" style="stroke: #000000; stroke-width: 0.8"/>
      </g>
     </g>
     <g id="text_7">
      <!-- 100 -->
      <g transform="translate(345.709977 433.040838) scale(0.1 -0.1)">
       <use xlink:href="#DejaVuSans-31"/>
       <use xlink:href="#DejaVuSans-30" x="63.623047"/>
       <use xlink:href="#DejaVuSans-30" x="127.246094"/>
      </g>
     </g>
    </g>
    <g id="xtick_8">
     <g id="line2d_8">
      <g>
       <use xlink:href="#ma31dff52ab" x="400.686341" y="418.4424" style="stroke: #000000; stroke-width: 0.8"/>
      </g>
     </g>
     <g id="text_8">
      <!-- 150 -->
      <g transform="translate(391.142591 433.040838) scale(0.1 -0.1)">
       <use xlink:href="#DejaVuSans-31"/>
       <use xlink:href="#DejaVuSans-35" x="63.623047"/>
       <use xlink:href="#DejaVuSans-30" x="127.246094"/>
      </g>
     </g>
    </g>
    <g id="xtick_9">
     <g id="line2d_9">
      <g>
       <use xlink:href="#ma31dff52ab" x="446.118955" y="418.4424" style="stroke: #000000; stroke-width: 0.8"/>
      </g>
     </g>
     <g id="text_9">
      <!-- 200 -->
      <g transform="translate(436.575205 433.040838) scale(0.1 -0.1)">
       <use xlink:href="#DejaVuSans-32"/>
       <use xlink:href="#DejaVuSans-30" x="63.623047"/>
       <use xlink:href="#DejaVuSans-30" x="127.246094"/>
      </g>
     </g>
    </g>
    <g id="text_10">
     <!-- $X(m)$ -->
     <g transform="translate(252.1885 446.718963) scale(0.1 -0.1)">
      <defs>
       <path id="DejaVuSans-Oblique-58" d="M 878 4666 
L 1516 4666 
L 2316 2981 
L 3763 4666 
L 4500 4666 
L 2578 2438 
L 3738 0 
L 3103 0 
L 2163 1966 
L 459 0 
L -275 0 
L 1906 2509 
L 878 4666 
z
" transform="scale(0.015625)"/>
       <path id="DejaVuSans-28" d="M 1984 4856 
Q 1566 4138 1362 3434 
Q 1159 2731 1159 2009 
Q 1159 1288 1364 580 
Q 1569 -128 1984 -844 
L 1484 -844 
Q 1016 -109 783 600 
Q 550 1309 550 2009 
Q 550 2706 781 3412 
Q 1013 4119 1484 4856 
L 1984 4856 
z
" transform="scale(0.015625)"/>
       <path id="DejaVuSans-Oblique-6d" d="M 5747 2113 
L 5338 0 
L 4763 0 
L 5166 2094 
Q 5191 2228 5203 2325 
Q 5216 2422 5216 2491 
Q 5216 2772 5059 2928 
Q 4903 3084 4622 3084 
Q 4203 3084 3875 2770 
Q 3547 2456 3450 1953 
L 3066 0 
L 2491 0 
L 2900 2094 
Q 2925 2209 2937 2307 
Q 2950 2406 2950 2484 
Q 2950 2769 2794 2926 
Q 2638 3084 2363 3084 
Q 1938 3084 1609 2770 
Q 1281 2456 1184 1953 
L 800 0 
L 225 0 
L 909 3500 
L 1484 3500 
L 1375 2956 
Q 1609 3263 1923 3423 
Q 2238 3584 2597 3584 
Q 2978 3584 3223 3384 
Q 3469 3184 3519 2828 
Q 3781 3197 4126 3390 
Q 4472 3584 4856 3584 
Q 5306 3584 5551 3325 
Q 5797 3066 5797 2591 
Q 5797 2488 5784 2364 
Q 5772 2241 5747 2113 
z
" transform="scale(0.015625)"/>
       <path id="DejaVuSans-29" d="M 513 4856 
L 1013 4856 
Q 1481 4119 1714 3412 
Q 1947 2706 1947 2009 
Q 1947 1309 1714 600 
Q 1481 -109 1013 -844 
L 513 -844 
Q 928 -128 1133 580 
Q 1338 1288 1338 2009 
Q 1338 2731 1133 3434 
Q 928 4138 513 4856 
z
" transform="scale(0.015625)"/>
      </defs>
      <use xlink:href="#DejaVuSans-Oblique-58" transform="translate(0 0.125)"/>
      <use xlink:href="#DejaVuSans-28" transform="translate(68.505859 0.125)"/>
      <use xlink:href="#DejaVuSans-Oblique-6d" transform="translate(107.519531 0.125)"/>
      <use xlink:href="#DejaVuSans-29" transform="translate(204.931641 0.125)"/>
     </g>
    </g>
   </g>
   <g id="matplotlib.axis_2">
    <g id="ytick_1">
     <g id="line2d_10">
      <defs>
       <path id="m062b86ffe9" d="M 0 0 
L -3.5 0 
" style="stroke: #000000; stroke-width: 0.8"/>
      </defs>
      <g>
       <use xlink:href="#m062b86ffe9" x="64.485" y="417.9315" style="stroke: #000000; stroke-width: 0.8"/>
      </g>
     </g>
     <g id="text_11">
      <!-- −40 -->
      <g transform="translate(36.380313 421.730718) scale(0.1 -0.1)">
       <defs>
        <path id="DejaVuSans-34" d="M 2419 4116 
L 825 1625 
L 2419 1625 
L 2419 4116 
z
M 2253 4666 
L 3047 4666 
L 3047 1625 
L 3713 1625 
L 3713 1100 
L 3047 1100 
L 3047 0 
L 2419 0 
L 2419 1100 
L 313 1100 
L 313 1709 
L 2253 4666 
z
" transform="scale(0.015625)"/>
       </defs>
       <use xlink:href="#DejaVuSans-2212"/>
       <use xlink:href="#DejaVuSans-34" x="83.789062"/>
       <use xlink:href="#DejaVuSans-30" x="147.412109"/>
      </g>
     </g>
    </g>
    <g id="ytick_2">
     <g id="line2d_11">
      <g>
       <use xlink:href="#m062b86ffe9" x="64.485" y="355.10715" style="stroke: #000000; stroke-width: 0.8"/>
      </g>
     </g>
     <g id="text_12">
      <!-- −20 -->
      <g transform="translate(36.380313 358.906369) scale(0.1 -0.1)">
       <use xlink:href="#DejaVuSans-2212"/>
       <use xlink:href="#DejaVuSans-32" x="83.789062"/>
       <use xlink:href="#DejaVuSans-30" x="147.412109"/>
      </g>
     </g>
    </g>
    <g id="ytick_3">
     <g id="line2d_12">
      <g>
       <use xlink:href="#m062b86ffe9" x="64.485" y="292.2828" style="stroke: #000000; stroke-width: 0.8"/>
      </g>
     </g>
     <g id="text_13">
      <!-- 0 -->
      <g transform="translate(51.1225 296.082019) scale(0.1 -0.1)">
       <use xlink:href="#DejaVuSans-30"/>
      </g>
     </g>
    </g>
    <g id="ytick_4">
     <g id="line2d_13">
      <g>
       <use xlink:href="#m062b86ffe9" x="64.485" y="229.45845" style="stroke: #000000; stroke-width: 0.8"/>
      </g>
     </g>
     <g id="text_14">
      <!-- 20 -->
      <g transform="translate(44.76 233.257669) scale(0.1 -0.1)">
       <use xlink:href="#DejaVuSans-32"/>
       <use xlink:href="#DejaVuSans-30" x="63.623047"/>
      </g>
     </g>
    </g>
    <g id="ytick_5">
     <g id="line2d_14">
      <g>
       <use xlink:href="#m062b86ffe9" x="64.485" y="166.6341" style="stroke: #000000; stroke-width: 0.8"/>
      </g>
     </g>
     <g id="text_15">
      <!-- 40 -->
      <g transform="translate(44.76 170.433319) scale(0.1 -0.1)">
       <use xlink:href="#DejaVuSans-34"/>
       <use xlink:href="#DejaVuSans-30" x="63.623047"/>
      </g>
     </g>
    </g>
    <g id="ytick_6">
     <g id="line2d_15">
      <g>
       <use xlink:href="#m062b86ffe9" x="64.485" y="103.809751" style="stroke: #000000; stroke-width: 0.8"/>
      </g>
     </g>
     <g id="text_16">
      <!-- 60 -->
      <g transform="translate(44.76 107.608969) scale(0.1 -0.1)">
       <defs>
        <path id="DejaVuSans-36" d="M 2113 2584 
Q 1688 2584 1439 2293 
Q 1191 2003 1191 1497 
Q 1191 994 1439 701 
Q 1688 409 2113 409 
Q 2538 409 2786 701 
Q 3034 994 3034 1497 
Q 3034 2003 2786 2293 
Q 2538 2584 2113 2584 
z
M 3366 4563 
L 3366 3988 
Q 3128 4100 2886 4159 
Q 2644 4219 2406 4219 
Q 1781 4219 1451 3797 
Q 1122 3375 1075 2522 
Q 1259 2794 1537 2939 
Q 1816 3084 2150 3084 
Q 2853 3084 3261 2657 
Q 3669 2231 3669 1497 
Q 3669 778 3244 343 
Q 2819 -91 2113 -91 
Q 1303 -91 875 529 
Q 447 1150 447 2328 
Q 447 3434 972 4092 
Q 1497 4750 2381 4750 
Q 2619 4750 2861 4703 
Q 3103 4656 3366 4563 
z
" transform="scale(0.015625)"/>
       </defs>
       <use xlink:href="#DejaVuSans-36"/>
       <use xlink:href="#DejaVuSans-30" x="63.623047"/>
      </g>
     </g>
    </g>
    <g id="text_17">
     <!-- $V_{diff2}(E)$ -->
     <g transform="translate(30.300625 255.9808) rotate(-90) scale(0.1 -0.1)">
      <defs>
       <path id="DejaVuSans-Oblique-56" d="M 1319 0 
L 500 4666 
L 1119 4666 
L 1797 653 
L 4063 4666 
L 4750 4666 
L 2053 0 
L 1319 0 
z
" transform="scale(0.015625)"/>
       <path id="DejaVuSans-Oblique-64" d="M 2675 525 
Q 2444 222 2128 65 
Q 1813 -91 1428 -91 
Q 903 -91 598 267 
Q 294 625 294 1247 
Q 294 1766 478 2236 
Q 663 2706 1013 3078 
Q 1244 3325 1534 3454 
Q 1825 3584 2144 3584 
Q 2481 3584 2739 3421 
Q 2997 3259 3138 2956 
L 3513 4863 
L 4091 4863 
L 3144 0 
L 2566 0 
L 2675 525 
z
M 891 1350 
Q 891 897 1095 644 
Q 1300 391 1663 391 
Q 1931 391 2161 520 
Q 2391 650 2566 903 
Q 2750 1166 2856 1509 
Q 2963 1853 2963 2188 
Q 2963 2622 2758 2865 
Q 2553 3109 2194 3109 
Q 1922 3109 1687 2981 
Q 1453 2853 1288 2613 
Q 1106 2353 998 2009 
Q 891 1666 891 1350 
z
" transform="scale(0.015625)"/>
       <path id="DejaVuSans-Oblique-69" d="M 1172 4863 
L 1747 4863 
L 1606 4134 
L 1031 4134 
L 1172 4863 
z
M 909 3500 
L 1484 3500 
L 800 0 
L 225 0 
L 909 3500 
z
" transform="scale(0.015625)"/>
       <path id="DejaVuSans-Oblique-66" d="M 3059 4863 
L 2969 4384 
L 2419 4384 
Q 2106 4384 1964 4261 
Q 1822 4138 1753 3809 
L 1691 3500 
L 2638 3500 
L 2553 3053 
L 1606 3053 
L 1013 0 
L 434 0 
L 1031 3053 
L 481 3053 
L 563 3500 
L 1113 3500 
L 1159 3744 
Q 1278 4363 1576 4613 
Q 1875 4863 2516 4863 
L 3059 4863 
z
" transform="scale(0.015625)"/>
       <path id="DejaVuSans-Oblique-45" d="M 1081 4666 
L 4031 4666 
L 3928 4134 
L 1606 4134 
L 1338 2753 
L 3566 2753 
L 3463 2222 
L 1234 2222 
L 909 531 
L 3284 531 
L 3181 0 
L 172 0 
L 1081 4666 
z
" transform="scale(0.015625)"/>
      </defs>
      <use xlink:href="#DejaVuSans-Oblique-56" transform="translate(0 0.125)"/>
      <use xlink:href="#DejaVuSans-Oblique-64" transform="translate(68.408203 -16.28125) scale(0.7)"/>
      <use xlink:href="#DejaVuSans-Oblique-69" transform="translate(112.841797 -16.28125) scale(0.7)"/>
      <use xlink:href="#DejaVuSans-Oblique-66" transform="translate(132.290039 -16.28125) scale(0.7)"/>
      <use xlink:href="#DejaVuSans-Oblique-66" transform="translate(156.933594 -16.28125) scale(0.7)"/>
      <use xlink:href="#DejaVuSans-32" transform="translate(181.577148 -16.28125) scale(0.7)"/>
      <use xlink:href="#DejaVuSans-28" transform="translate(228.847656 0.125)"/>
      <use xlink:href="#DejaVuSans-Oblique-45" transform="translate(267.861328 0.125)"/>
      <use xlink:href="#DejaVuSans-29" transform="translate(331.044922 0.125)"/>
     </g>
    </g>
   </g>
   <g id="line2d_16">
    <path d="M 82.658045 278.545686 
L 87.201307 277.946838 
L 91.744568 277.328691 
L 96.28783 276.693114 
L 100.831091 276.042712 
L 105.374352 275.381002 
L 109.917614 274.712614 
L 114.460875 274.04353 
L 119.004136 273.381369 
L 123.547398 272.735725 
L 128.090659 272.118549 
L 132.63392 271.544602 
L 137.177182 271.031963 
L 141.720443 270.602601 
L 146.263705 270.283001 
L 150.806966 270.104834 
L 155.350227 270.105649 
L 159.893489 270.329538 
L 164.43675 270.827721 
L 168.980011 271.658962 
L 173.523273 272.889689 
L 178.066534 274.593662 
L 182.609795 276.85096 
L 187.153057 279.746066 
L 191.696318 283.36473 
L 196.23958 287.789324 
L 200.782841 293.09243 
L 205.326102 299.328489 
L 209.869364 306.523562 
L 214.412625 314.663581 
L 218.955886 323.681917 
L 223.499148 333.447667 
L 228.042409 343.75662 
L 232.58567 354.327336 
L 237.128932 364.80485 
L 241.672193 374.774104 
L 246.215455 383.784032 
L 250.758716 391.381405 
L 255.301977 397.151312 
L 259.845239 400.759032 
L 264.3885 401.9868 
L 268.931761 400.759032 
L 273.475023 397.151312 
L 278.018284 391.381405 
L 282.561545 383.784032 
L 287.104807 374.774104 
L 291.648068 364.80485 
L 296.19133 354.327336 
L 300.734591 343.75662 
L 305.277852 333.447667 
L 309.821114 323.681917 
L 314.364375 314.663581 
L 318.907636 306.523562 
L 323.450898 299.328489 
L 327.994159 293.09243 
L 332.53742 287.789324 
L 337.080682 283.36473 
L 341.623943 279.746066 
L 346.167205 276.85096 
L 350.710466 274.593662 
L 355.253727 272.889689 
L 359.796989 271.658962 
L 364.34025 270.827721 
L 368.883511 270.329538 
L 373.426773 270.105649 
L 377.970034 270.104834 
L 382.513295 270.283001 
L 387.056557 270.602601 
L 391.599818 271.031963 
L 396.14308 271.544602 
L 400.686341 272.118549 
L 405.229602 272.735725 
L 409.772864 273.381369 
L 414.316125 274.04353 
L 418.859386 274.712614 
L 423.402648 275.381002 
L 427.945909 276.042712 
L 432.48917 276.693114 
L 437.032432 277.328691 
L 441.575693 277.946838 
L 446.118955 278.545686 
" clip-path="url(#p5ebd437801)" style="fill: none; stroke: #1f77b4; stroke-width: 1.5; stroke-linecap: square"/>
   </g>
   <g id="line2d_17">
    <path d="M 82.658045 302.095024 
L 87.201307 302.706488 
L 91.744568 303.366151 
L 96.28783 304.078418 
L 100.831091 304.848124 
L 105.374352 305.680566 
L 109.917614 306.58155 
L 114.460875 307.55742 
L 119.004136 308.615104 
L 123.547398 309.762149 
L 128.090659 311.006748 
L 132.63392 312.357764 
L 137.177182 313.824744 
L 141.720443 315.417908 
L 146.263705 317.148119 
L 150.806966 319.026818 
L 155.350227 321.06591 
L 159.893489 323.277603 
L 164.43675 325.674156 
L 168.980011 328.267547 
L 173.523273 331.069021 
L 178.066534 334.088497 
L 182.609795 337.333817 
L 187.153057 340.809819 
L 191.696318 344.51721 
L 196.23958 348.451248 
L 200.782841 352.600262 
L 205.326102 356.944043 
L 209.869364 361.452215 
L 214.412625 366.082716 
L 218.955886 370.780592 
L 223.499148 375.477342 
L 228.042409 380.091082 
L 232.58567 384.527822 
L 237.128932 388.684061 
L 241.672193 392.450812 
L 246.215455 395.718975 
L 250.758716 398.385757 
L 255.301977 400.361572 
L 259.845239 401.576692 
L 264.3885 401.9868 
L 268.931761 401.576692 
L 273.475023 400.361572 
L 278.018284 398.385757 
L 282.561545 395.718975 
L 287.104807 392.450812 
L 291.648068 388.684061 
L 296.19133 384.527822 
L 300.734591 380.091082 
L 305.277852 375.477342 
L 309.821114 370.780592 
L 314.364375 366.082716 
L 318.907636 361.452215 
L 323.450898 356.944043 
L 327.994159 352.600262 
L 332.53742 348.451248 
L 337.080682 344.51721 
L 341.623943 340.809819 
L 346.167205 337.333817 
L 350.710466 334.088497 
L 355.253727 331.069021 
L 359.796989 328.267547 
L 364.34025 325.674156 
L 368.883511 323.277603 
L 373.426773 321.06591 
L 377.970034 319.026818 
L 382.513295 317.148119 
L 387.056557 315.417908 
L 391.599818 313.824744 
L 396.14308 312.357764 
L 400.686341 311.006748 
L 405.229602 309.762149 
L 409.772864 308.615104 
L 414.316125 307.55742 
L 418.859386 306.58155 
L 423.402648 305.680566 
L 427.945909 304.848124 
L 432.48917 304.078418 
L 437.032432 303.366151 
L 441.575693 302.706488 
L 446.118955 302.095024 
" clip-path="url(#p5ebd437801)" style="fill: none; stroke: #ff7f0e; stroke-width: 1.5; stroke-linecap: square"/>
   </g>
   <g id="line2d_18">
    <path d="M 82.658045 296.20769 
L 87.201307 296.195074 
L 91.744568 296.153558 
L 96.28783 296.076868 
L 100.831091 295.957564 
L 105.374352 295.786831 
L 109.917614 295.554236 
L 114.460875 295.247451 
L 119.004136 294.851927 
L 123.547398 294.350526 
L 128.090659 293.723104 
L 132.63392 292.946034 
L 137.177182 291.991693 
L 141.720443 290.827891 
L 146.263705 289.41728 
L 150.806966 287.716748 
L 155.350227 285.67684 
L 159.893489 283.241259 
L 164.43675 280.346524 
L 168.980011 276.921891 
L 173.523273 272.889689 
L 178.066534 268.166242 
L 182.609795 262.663623 
L 187.153057 256.292514 
L 191.696318 248.96646 
L 196.23958 240.607828 
L 200.782841 231.155707 
L 205.326102 220.575868 
L 209.869364 208.872624 
L 214.412625 196.102104 
L 218.955886 182.385891 
L 223.499148 167.923391 
L 228.042409 153.000698 
L 232.58567 137.993242 
L 237.128932 123.359489 
L 241.672193 109.623484 
L 246.215455 97.345392 
L 250.758716 87.081237 
L 255.301977 79.335516 
L 259.845239 74.512676 
L 264.3885 72.8748 
L 268.931761 74.512676 
L 273.475023 79.335516 
L 278.018284 87.081237 
L 282.561545 97.345392 
L 287.104807 109.623484 
L 291.648068 123.359489 
L 296.19133 137.993242 
L 300.734591 153.000698 
L 305.277852 167.923391 
L 309.821114 182.385891 
L 314.364375 196.102104 
L 318.907636 208.872624 
L 323.450898 220.575868 
L 327.994159 231.155707 
L 332.53742 240.607828 
L 337.080682 248.96646 
L 341.623943 256.292514 
L 346.167205 262.663623 
L 350.710466 268.166242 
L 355.253727 272.889689 
L 359.796989 276.921891 
L 364.34025 280.346524 
L 368.883511 283.241259 
L 373.426773 285.67684 
L 377.970034 287.716748 
L 382.513295 289.41728 
L 387.056557 290.827891 
L 391.599818 291.991693 
L 396.14308 292.946034 
L 400.686341 293.723104 
L 405.229602 294.350526 
L 409.772864 294.851927 
L 414.316125 295.247451 
L 418.859386 295.554236 
L 423.402648 295.786831 
L 427.945909 295.957564 
L 432.48917 296.076868 
L 437.032432 296.153558 
L 441.575693 296.195074 
L 446.118955 296.20769 
" clip-path="url(#p5ebd437801)" style="fill: none; stroke: #2ca02c; stroke-width: 1.5; stroke-linecap: square"/>
   </g>
   <g id="line2d_19">
    <path d="M 82.658045 292.2828 
L 87.201307 292.2828 
L 91.744568 292.2828 
L 96.28783 292.2828 
L 100.831091 292.2828 
L 105.374352 292.2828 
L 109.917614 292.2828 
L 114.460875 292.2828 
L 119.004136 292.2828 
L 123.547398 292.2828 
L 128.090659 292.2828 
L 132.63392 292.2828 
L 137.177182 292.2828 
L 141.720443 292.2828 
L 146.263705 292.2828 
L 150.806966 292.2828 
L 155.350227 292.2828 
L 159.893489 292.2828 
L 164.43675 292.2828 
L 168.980011 292.2828 
L 173.523273 292.2828 
L 178.066534 292.2828 
L 182.609795 292.2828 
L 187.153057 292.2828 
L 191.696318 292.2828 
L 196.23958 292.2828 
L 200.782841 292.2828 
L 205.326102 292.2828 
L 209.869364 292.2828 
L 214.412625 292.2828 
L 218.955886 292.2828 
L 223.499148 292.2828 
L 228.042409 292.2828 
L 232.58567 292.2828 
L 237.128932 292.2828 
L 241.672193 292.2828 
L 246.215455 292.2828 
L 250.758716 292.2828 
L 255.301977 292.2828 
L 259.845239 292.2828 
L 264.3885 292.2828 
L 268.931761 292.2828 
L 273.475023 292.2828 
L 278.018284 292.2828 
L 282.561545 292.2828 
L 287.104807 292.2828 
L 291.648068 292.2828 
L 296.19133 292.2828 
L 300.734591 292.2828 
L 305.277852 292.2828 
L 309.821114 292.2828 
L 314.364375 292.2828 
L 318.907636 292.2828 
L 323.450898 292.2828 
L 327.994159 292.2828 
L 332.53742 292.2828 
L 337.080682 292.2828 
L 341.623943 292.2828 
L 346.167205 292.2828 
L 350.710466 292.2828 
L 355.253727 292.2828 
L 359.796989 292.2828 
L 364.34025 292.2828 
L 368.883511 292.2828 
L 373.426773 292.2828 
L 377.970034 292.2828 
L 382.513295 292.2828 
L 387.056557 292.2828 
L 391.599818 292.2828 
L 396.14308 292.2828 
L 400.686341 292.2828 
L 405.229602 292.2828 
L 409.772864 292.2828 
L 414.316125 292.2828 
L 418.859386 292.2828 
L 423.402648 292.2828 
L 427.945909 292.2828 
L 432.48917 292.2828 
L 437.032432 292.2828 
L 441.575693 292.2828 
L 446.118955 292.2828 
" clip-path="url(#p5ebd437801)" style="fill: none; stroke: #d62728; stroke-width: 1.5; stroke-linecap: square"/>
   </g>
   <g id="line2d_20">
    <path d="M 82.658045 280.508131 
L 87.201307 279.585543 
L 91.744568 278.578874 
L 96.28783 277.479933 
L 100.831091 276.279794 
L 105.374352 274.968763 
L 109.917614 273.536367 
L 114.460875 271.971352 
L 119.004136 270.261715 
L 123.547398 268.394784 
L 128.090659 266.357334 
L 132.63392 264.135791 
L 137.177182 261.716528 
L 141.720443 259.086276 
L 146.263705 256.232709 
L 150.806966 253.145213 
L 155.350227 249.815916 
L 159.893489 246.241005 
L 164.43675 242.422405 
L 168.980011 238.369861 
L 173.523273 234.103468 
L 178.066534 229.656658 
L 182.609795 225.079625 
L 187.153057 220.443091 
L 191.696318 215.8422 
L 196.23958 211.400235 
L 200.782841 207.271612 
L 205.326102 203.643486 
L 209.869364 200.735045 
L 214.412625 198.793464 
L 218.955886 198.085449 
L 223.499148 198.883522 
L 228.042409 201.446646 
L 232.58567 205.995697 
L 237.128932 212.685428 
L 241.672193 221.575968 
L 246.215455 232.608083 
L 250.758716 245.587122 
L 255.301977 260.180194 
L 259.845239 275.929599 
L 264.3885 292.2828 
L 268.931761 308.636001 
L 273.475023 324.385406 
L 278.018284 338.978478 
L 282.561545 351.957517 
L 287.104807 362.989632 
L 291.648068 371.880172 
L 296.19133 378.569903 
L 300.734591 383.118954 
L 305.277852 385.682078 
L 309.821114 386.480151 
L 314.364375 385.772136 
L 318.907636 383.830555 
L 323.450898 380.922114 
L 327.994159 377.293988 
L 332.53742 373.165365 
L 337.080682 368.7234 
L 341.623943 364.122509 
L 346.167205 359.485975 
L 350.710466 354.908942 
L 355.253727 350.462132 
L 359.796989 346.195739 
L 364.34025 342.143195 
L 368.883511 338.324595 
L 373.426773 334.749684 
L 377.970034 331.420387 
L 382.513295 328.332891 
L 387.056557 325.479324 
L 391.599818 322.849072 
L 396.14308 320.429809 
L 400.686341 318.208266 
L 405.229602 316.170816 
L 409.772864 314.303885 
L 414.316125 312.594248 
L 418.859386 311.029233 
L 423.402648 309.596837 
L 427.945909 308.285806 
L 432.48917 307.085667 
L 437.032432 305.986726 
L 441.575693 304.980057 
L 446.118955 304.057469 
" clip-path="url(#p5ebd437801)" style="fill: none; stroke: #9467bd; stroke-width: 1.5; stroke-linecap: square"/>
   </g>
   <g id="line2d_21">
    <path d="M 82.658045 292.2828 
L 87.201307 292.2828 
L 91.744568 292.2828 
L 96.28783 292.2828 
L 100.831091 292.2828 
L 105.374352 292.2828 
L 109.917614 292.2828 
L 114.460875 292.2828 
L 119.004136 292.2828 
L 123.547398 292.2828 
L 128.090659 292.2828 
L 132.63392 292.2828 
L 137.177182 292.2828 
L 141.720443 292.2828 
L 146.263705 292.2828 
L 150.806966 292.2828 
L 155.350227 292.2828 
L 159.893489 292.2828 
L 164.43675 292.2828 
L 168.980011 292.2828 
L 173.523273 292.2828 
L 178.066534 292.2828 
L 182.609795 292.2828 
L 187.153057 292.2828 
L 191.696318 292.2828 
L 196.23958 292.2828 
L 200.782841 292.2828 
L 205.326102 292.2828 
L 209.869364 292.2828 
L 214.412625 292.2828 
L 218.955886 292.2828 
L 223.499148 292.2828 
L 228.042409 292.2828 
L 232.58567 292.2828 
L 237.128932 292.2828 
L 241.672193 292.2828 
L 246.215455 292.2828 
L 250.758716 292.2828 
L 255.301977 292.2828 
L 259.845239 292.2828 
L 264.3885 292.2828 
L 268.931761 292.2828 
L 273.475023 292.2828 
L 278.018284 292.2828 
L 282.561545 292.2828 
L 287.104807 292.2828 
L 291.648068 292.2828 
L 296.19133 292.2828 
L 300.734591 292.2828 
L 305.277852 292.2828 
L 309.821114 292.2828 
L 314.364375 292.2828 
L 318.907636 292.2828 
L 323.450898 292.2828 
L 327.994159 292.2828 
L 332.53742 292.2828 
L 337.080682 292.2828 
L 341.623943 292.2828 
L 346.167205 292.2828 
L 350.710466 292.2828 
L 355.253727 292.2828 
L 359.796989 292.2828 
L 364.34025 292.2828 
L 368.883511 292.2828 
L 373.426773 292.2828 
L 377.970034 292.2828 
L 382.513295 292.2828 
L 387.056557 292.2828 
L 391.599818 292.2828 
L 396.14308 292.2828 
L 400.686341 292.2828 
L 405.229602 292.2828 
L 409.772864 292.2828 
L 414.316125 292.2828 
L 418.859386 292.2828 
L 423.402648 292.2828 
L 427.945909 292.2828 
L 432.48917 292.2828 
L 437.032432 292.2828 
L 441.575693 292.2828 
L 446.118955 292.2828 
" clip-path="url(#p5ebd437801)" style="fill: none; stroke: #8c564b; stroke-width: 1.5; stroke-linecap: square"/>
   </g>
   <g id="patch_3">
    <path d="M 64.485 418.4424 
L 64.485 56.4192 
" style="fill: none; stroke: #000000; stroke-width: 0.8; stroke-linejoin: miter; stroke-linecap: square"/>
   </g>
   <g id="patch_4">
    <path d="M 464.292 418.4424 
L 464.292 56.4192 
" style="fill: none; stroke: #000000; stroke-width: 0.8; stroke-linejoin: miter; stroke-linecap: square"/>
   </g>
   <g id="patch_5">
    <path d="M 64.485 418.4424 
L 464.292 418.4424 
" style="fill: none; stroke: #000000; stroke-width: 0.8; stroke-linejoin: miter; stroke-linecap: square"/>
   </g>
   <g id="patch_6">
    <path d="M 64.485 56.4192 
L 464.292 56.4192 
" style="fill: none; stroke: #000000; stroke-width: 0.8; stroke-linejoin: miter; stroke-linecap: square"/>
   </g>
   <g id="text_18">
    <!-- $V_{diff2}\ Slice$ -->
    <g transform="translate(234.5685 50.4192) scale(0.12 -0.12)">
     <defs>
      <path id="DejaVuSans-Oblique-53" d="M 3859 4513 
L 3738 3897 
Q 3422 4066 3111 4152 
Q 2800 4238 2509 4238 
Q 1944 4238 1609 3991 
Q 1275 3744 1275 3334 
Q 1275 3109 1398 2989 
Q 1522 2869 2034 2731 
L 2413 2638 
Q 3053 2472 3303 2217 
Q 3553 1963 3553 1503 
Q 3553 797 2998 353 
Q 2444 -91 1538 -91 
Q 1166 -91 791 -17 
Q 416 56 38 206 
L 166 856 
Q 513 641 861 531 
Q 1209 422 1556 422 
Q 2147 422 2503 684 
Q 2859 947 2859 1369 
Q 2859 1650 2717 1795 
Q 2575 1941 2106 2059 
L 1728 2156 
Q 1081 2325 845 2545 
Q 609 2766 609 3163 
Q 609 3859 1145 4304 
Q 1681 4750 2541 4750 
Q 2875 4750 3203 4690 
Q 3531 4631 3859 4513 
z
" transform="scale(0.015625)"/>
      <path id="DejaVuSans-Oblique-6c" d="M 1172 4863 
L 1747 4863 
L 800 0 
L 225 0 
L 1172 4863 
z
" transform="scale(0.015625)"/>
      <path id="DejaVuSans-Oblique-63" d="M 3431 3366 
L 3316 2797 
Q 3109 2947 2876 3022 
Q 2644 3097 2394 3097 
Q 2119 3097 1870 3000 
Q 1622 2903 1453 2725 
Q 1184 2453 1037 2087 
Q 891 1722 891 1331 
Q 891 859 1127 628 
Q 1363 397 1844 397 
Q 2081 397 2348 469 
Q 2616 541 2906 684 
L 2797 116 
Q 2547 13 2283 -39 
Q 2019 -91 1741 -91 
Q 1044 -91 669 257 
Q 294 606 294 1253 
Q 294 1797 489 2255 
Q 684 2713 1069 3078 
Q 1331 3328 1684 3456 
Q 2038 3584 2456 3584 
Q 2700 3584 2940 3529 
Q 3181 3475 3431 3366 
z
" transform="scale(0.015625)"/>
      <path id="DejaVuSans-Oblique-65" d="M 3078 2063 
Q 3088 2113 3092 2166 
Q 3097 2219 3097 2272 
Q 3097 2653 2873 2875 
Q 2650 3097 2266 3097 
Q 1838 3097 1509 2826 
Q 1181 2556 1013 2059 
L 3078 2063 
z
M 3578 1613 
L 903 1613 
Q 884 1494 878 1425 
Q 872 1356 872 1306 
Q 872 872 1139 634 
Q 1406 397 1894 397 
Q 2269 397 2603 481 
Q 2938 566 3225 728 
L 3116 159 
Q 2806 34 2476 -28 
Q 2147 -91 1806 -91 
Q 1078 -91 686 257 
Q 294 606 294 1247 
Q 294 1794 489 2264 
Q 684 2734 1063 3103 
Q 1306 3334 1642 3459 
Q 1978 3584 2356 3584 
Q 2950 3584 3301 3228 
Q 3653 2872 3653 2272 
Q 3653 2128 3634 1964 
Q 3616 1800 3578 1613 
z
" transform="scale(0.015625)"/>
     </defs>
     <use xlink:href="#DejaVuSans-Oblique-56" transform="translate(0 0.015625)"/>
     <use xlink:href="#DejaVuSans-Oblique-64" transform="translate(68.408203 -16.390625) scale(0.7)"/>
     <use xlink:href="#DejaVuSans-Oblique-69" transform="translate(112.841797 -16.390625) scale(0.7)"/>
     <use xlink:href="#DejaVuSans-Oblique-66" transform="translate(132.290039 -16.390625) scale(0.7)"/>
     <use xlink:href="#DejaVuSans-Oblique-66" transform="translate(156.933594 -16.390625) scale(0.7)"/>
     <use xlink:href="#DejaVuSans-32" transform="translate(181.577148 -16.390625) scale(0.7)"/>
     <use xlink:href="#DejaVuSans-Oblique-53" transform="translate(261.318035 0.015625)"/>
     <use xlink:href="#DejaVuSans-Oblique-6c" transform="translate(324.794597 0.015625)"/>
     <use xlink:href="#DejaVuSans-Oblique-69" transform="translate(352.5778 0.015625)"/>
     <use xlink:href="#DejaVuSans-Oblique-63" transform="translate(380.361003 0.015625)"/>
     <use xlink:href="#DejaVuSans-Oblique-65" transform="translate(435.341472 0.015625)"/>
    </g>
   </g>
   <g id="legend_1">
    <g id="patch_7">
     <path d="M 406.613875 152.48795 
L 457.292 152.48795 
Q 459.292 152.48795 459.292 150.48795 
L 459.292 63.4192 
Q 459.292 61.4192 457.292 61.4192 
L 406.613875 61.4192 
Q 404.613875 61.4192 404.613875 63.4192 
L 404.613875 150.48795 
Q 404.613875 152.48795 406.613875 152.48795 
z
" style="fill: #ffffff; opacity: 0.8; stroke: #cccccc; stroke-linejoin: miter"/>
    </g>
    <g id="line2d_22">
     <path d="M 408.613875 69.517637 
L 418.613875 69.517637 
L 428.613875 69.517637 
" style="fill: none; stroke: #1f77b4; stroke-width: 1.5; stroke-linecap: square"/>
    </g>
    <g id="text_19">
     <!-- Vxx -->
     <g transform="translate(436.613875 73.017637) scale(0.1 -0.1)">
      <defs>
       <path id="DejaVuSans-56" d="M 1831 0 
L 50 4666 
L 709 4666 
L 2188 738 
L 3669 4666 
L 4325 4666 
L 2547 0 
L 1831 0 
z
" transform="scale(0.015625)"/>
       <path id="DejaVuSans-78" d="M 3513 3500 
L 2247 1797 
L 3578 0 
L 2900 0 
L 1881 1375 
L 863 0 
L 184 0 
L 1544 1831 
L 300 3500 
L 978 3500 
L 1906 2253 
L 2834 3500 
L 3513 3500 
z
" transform="scale(0.015625)"/>
      </defs>
      <use xlink:href="#DejaVuSans-56"/>
      <use xlink:href="#DejaVuSans-78" x="68.408203"/>
      <use xlink:href="#DejaVuSans-78" x="127.587891"/>
     </g>
    </g>
    <g id="line2d_23">
     <path d="M 408.613875 84.195763 
L 418.613875 84.195763 
L 428.613875 84.195763 
" style="fill: none; stroke: #ff7f0e; stroke-width: 1.5; stroke-linecap: square"/>
    </g>
    <g id="text_20">
     <!-- Vyy -->
     <g transform="translate(436.613875 87.695763) scale(0.1 -0.1)">
      <defs>
       <path id="DejaVuSans-79" d="M 2059 -325 
Q 1816 -950 1584 -1140 
Q 1353 -1331 966 -1331 
L 506 -1331 
L 506 -850 
L 844 -850 
Q 1081 -850 1212 -737 
Q 1344 -625 1503 -206 
L 1606 56 
L 191 3500 
L 800 3500 
L 1894 763 
L 2988 3500 
L 3597 3500 
L 2059 -325 
z
" transform="scale(0.015625)"/>
      </defs>
      <use xlink:href="#DejaVuSans-56"/>
      <use xlink:href="#DejaVuSans-79" x="65.783203"/>
      <use xlink:href="#DejaVuSans-79" x="124.962891"/>
     </g>
    </g>
    <g id="line2d_24">
     <path d="M 408.613875 98.873887 
L 418.613875 98.873887 
L 428.613875 98.873887 
" style="fill: none; stroke: #2ca02c; stroke-width: 1.5; stroke-linecap: square"/>
    </g>
    <g id="text_21">
     <!-- Vzz -->
     <g transform="translate(436.613875 102.373887) scale(0.1 -0.1)">
      <defs>
       <path id="DejaVuSans-7a" d="M 353 3500 
L 3084 3500 
L 3084 2975 
L 922 459 
L 3084 459 
L 3084 0 
L 275 0 
L 275 525 
L 2438 3041 
L 353 3041 
L 353 3500 
z
" transform="scale(0.015625)"/>
      </defs>
      <use xlink:href="#DejaVuSans-56"/>
      <use xlink:href="#DejaVuSans-7a" x="68.408203"/>
      <use xlink:href="#DejaVuSans-7a" x="120.898438"/>
     </g>
    </g>
    <g id="line2d_25">
     <path d="M 408.613875 113.552012 
L 418.613875 113.552012 
L 428.613875 113.552012 
" style="fill: none; stroke: #d62728; stroke-width: 1.5; stroke-linecap: square"/>
    </g>
    <g id="text_22">
     <!-- Vxy -->
     <g transform="translate(436.613875 117.052012) scale(0.1 -0.1)">
      <use xlink:href="#DejaVuSans-56"/>
      <use xlink:href="#DejaVuSans-78" x="68.408203"/>
      <use xlink:href="#DejaVuSans-79" x="127.587891"/>
     </g>
    </g>
    <g id="line2d_26">
     <path d="M 408.613875 128.230138 
L 418.613875 128.230138 
L 428.613875 128.230138 
" style="fill: none; stroke: #9467bd; stroke-width: 1.5; stroke-linecap: square"/>
    </g>
    <g id="text_23">
     <!-- Vxz -->
     <g transform="translate(436.613875 131.730138) scale(0.1 -0.1)">
      <use xlink:href="#DejaVuSans-56"/>
      <use xlink:href="#DejaVuSans-78" x="68.408203"/>
      <use xlink:href="#DejaVuSans-7a" x="127.587891"/>
     </g>
    </g>
    <g id="line2d_27">
     <path d="M 408.613875 142.908262 
L 418.613875 142.908262 
L 428.613875 142.908262 
" style="fill: none; stroke: #8c564b; stroke-width: 1.5; stroke-linecap: square"/>
    </g>
    <g id="text_24">
     <!-- Vyz -->
     <g transform="translate(436.613875 146.408262) scale(0.1 -0.1)">
      <use xlink:href="#DejaVuSans-56"/>
      <use xlink:href="#DejaVuSans-79" x="65.783203"/>
      <use xlink:href="#DejaVuSans-7a" x="124.962891"/>
     </g>
    </g>
   </g>
  </g>
 </g>
 <defs>
  <clipPath id="p5ebd437801">
   <rect x="64.485" y="56.4192" width="399.807" height="362.0232"/>
  </clipPath>
 </defs>
</svg>
